<svg xmlns="http://www.w3.org/2000/svg" viewBox="0 0 60 60"><defs><style>.cls-1{fill:#20bfa9;}.cls-2{fill:#fdfeff;}</style></defs><g id="Layer_2" data-name="Layer 2"><g id="Layer_1-2" data-name="Layer 1"><path class="cls-1" d="M0,30A30,30,0,1,1,30,60,30,30,0,0,1,0,30Z"/><path class="cls-2" d="M43.52,19.83V27h0a2.83,2.83,0,0,1,1.9.85,2.93,2.93,0,0,1,.85,2,2.76,2.76,0,0,1-.85,2l-3.23,3.21-.57-.57,3.23-3.21a2,2,0,0,0,.61-1.46,2.12,2.12,0,0,0-.61-1.5,1.6,1.6,0,0,0-.72-.45,1.74,1.74,0,0,0-1.9.32l-7.79,7.84a3.08,3.08,0,0,0-.93,2.19V49.92h7.71V42.69c.6-.57,5.21-4.75,5.73-5.28a4.06,4.06,0,0,0,1-2.8V19.87a2.35,2.35,0,0,0-2.38-2.15,2.09,2.09,0,0,0-2.1,2.11Z"/><path class="cls-2" d="M17.52,19.83V27h0a2.83,2.83,0,0,0-1.9.85,2.92,2.92,0,0,0-.84,2,2.76,2.76,0,0,0,.84,2l3.23,3.21.53-.53L16.11,31.4a2,2,0,0,1-.61-1.46,2,2,0,0,1,.61-1.46,1.58,1.58,0,0,1,.73-.45,1.71,1.71,0,0,1,1.89.33l7.79,7.83a3.11,3.11,0,0,1,.93,2.2V50H19.74V42.77c-.6-.57-5.21-4.75-5.73-5.28a4,4,0,0,1-1-2.8c0-.12,0-14.86,0-14.86a2.35,2.35,0,0,1,2.38-2.15,2.13,2.13,0,0,1,2.14,2.15Z"/><path class="cls-2" d="M37.83,25.51a8.62,8.62,0,0,0,1.61-5.07,8.55,8.55,0,0,0-2.5-6.22,8.73,8.73,0,1,0-6.18,14.91,7.29,7.29,0,0,0,2.38-.37L33,28a7.14,7.14,0,0,1-2.26.32,7.88,7.88,0,1,1,7.83-7.87,8.13,8.13,0,0,1-1.49,4.67Z"/><path class="cls-2" d="M38.11,13.09A10.27,10.27,0,0,0,30.76,10a8.87,8.87,0,0,0-2.78.41l.16.81a9.27,9.27,0,0,1,2.62-.37,9.56,9.56,0,1,1-7.79,4l-.68-.4a10.13,10.13,0,0,0-1.9,6,10.38,10.38,0,1,0,17.72-7.39Z"/><path class="cls-2" d="M36.37,19.22h-.92a5.85,5.85,0,0,0-.65-1.59l.77-.77a.29.29,0,0,0,0-.4l-1.09-1.1a.28.28,0,0,0-.41,0l-.8.81a5.21,5.21,0,0,0-1.42-.61v-1a.28.28,0,0,0-.28-.29H30.08a.28.28,0,0,0-.29.29v1a5.14,5.14,0,0,0-1.49.61l-.85-.85a.27.27,0,0,0-.4,0l-1.13,1a.36.36,0,0,0-.08.21.31.31,0,0,0,.08.2l.81.81A4.39,4.39,0,0,0,26,19.18h-.93a.27.27,0,0,0-.28.28V21a.28.28,0,0,0,.28.29H26a4.69,4.69,0,0,0,.6,1.46l-.72.81a.31.31,0,0,0-.08.21.31.31,0,0,0,.08.2L27,25a.27.27,0,0,0,.4,0l.73-.73a4.6,4.6,0,0,0,1.61.69v.86a.28.28,0,0,0,.29.28h1.49a.27.27,0,0,0,.28-.28v-.9a4.46,4.46,0,0,0,1.58-.69l.6.61a.31.31,0,0,0,.2.08.36.36,0,0,0,.21-.08l1-1.05a.34.34,0,0,0,.09-.21.27.27,0,0,0-.09-.2l-.6-.61a4.69,4.69,0,0,0,.6-1.46h.93a.28.28,0,0,0,.29-.29V19.5a.23.23,0,0,0-.25-.28Zm-5.61,4a3,3,0,1,1,2.95-3A3,3,0,0,1,30.76,23.2Z"/></g></g></svg>