<svg xmlns="http://www.w3.org/2000/svg" xmlns:xlink="http://www.w3.org/1999/xlink" viewBox="0 0 250 250" width="250" height="250" preserveAspectRatio="xMidYMid slice" style="width: 100%; height: 100%; transform: translate3d(0px, 0px, 0px); content-visibility: visible;"><defs><clipPath id="__lottie_element_22"><rect width="250" height="250" x="0" y="0"></rect></clipPath></defs><g clip-path="url(#__lottie_element_22)"><g transform="matrix(1.3332185745239258,-0.014729522168636322,0.014729522168636322,1.3332185745239258,0,22.315290451049805)" opacity="1" style="display: block;"><g opacity="1" transform="matrix(1,0,0,1,0,0)"><g opacity="1" transform="matrix(1,0,0,1,0,0)"><path fill="rgb(221,0,48)" fill-opacity="1" d=" M93.75,22.5 C93.75,22.5 23.93000030517578,47.400001525878906 23.93000030517578,47.400001525878906 C23.93000030517578,47.400001525878906 34.56999969482422,139.72999572753906 34.56999969482422,139.72999572753906 C34.56999969482422,139.72999572753906 93.75,172.5 93.75,172.5 C93.75,172.5 152.92999267578125,139.72999572753906 152.92999267578125,139.72999572753906 C152.92999267578125,139.72999572753906 163.57000732421875,47.400001525878906 163.57000732421875,47.400001525878906 C163.57000732421875,47.400001525878906 93.75,22.5 93.75,22.5z"></path></g><g opacity="1" transform="matrix(1,0,0,1,0,0)"><path fill="rgb(193,0,45)" fill-opacity="1" d=" M93.75,22.5 C93.75,22.5 93.75,39.150001525878906 93.75,39.150001525878906 C93.75,39.150001525878906 93.75,39.06999969482422 93.75,39.06999969482422 C93.75,39.06999969482422 93.75,172.5 93.75,172.5 C93.75,172.5 152.92999267578125,139.72999572753906 152.92999267578125,139.72999572753906 C152.92999267578125,139.72999572753906 163.57000732421875,47.400001525878906 163.57000732421875,47.400001525878906 C163.57000732421875,47.400001525878906 93.75,22.5 93.75,22.5z"></path></g><g opacity="1" transform="matrix(1,0,0,1,0,0)"><path fill="rgb(255,255,255)" fill-opacity="1" d=" M106.5,101.55000305175781 C106.5,101.55000305175781 81,101.55000305175781 81,101.55000305175781 C81,101.55000305175781 93.75,70.87999725341797 93.75,70.87999725341797 C93.75,70.87999725341797 106.5,101.55000305175781 106.5,101.55000305175781z M93.75,39.06999969482422 C93.75,39.06999969482422 50.099998474121094,136.9499969482422 50.099998474121094,136.9499969482422 C50.099998474121094,136.9499969482422 66.37999725341797,136.9499969482422 66.37999725341797,136.9499969482422 C66.37999725341797,136.9499969482422 75.1500015258789,115.05000305175781 75.1500015258789,115.05000305175781 C75.1500015258789,115.05000305175781 112.19999694824219,115.05000305175781 112.19999694824219,115.05000305175781 C112.19999694824219,115.05000305175781 120.97000122070312,136.9499969482422 120.97000122070312,136.9499969482422 C120.97000122070312,136.9499969482422 137.25,136.9499969482422 137.25,136.9499969482422 C137.25,136.9499969482422 93.75,39.06999969482422 93.75,39.06999969482422z"></path></g></g></g></g></svg>