<svg xmlns="http://www.w3.org/2000/svg" width="105.554" height="63.12" viewBox="0 0 105.554 63.12">
  <g id="Amazon_Web_Services_Logo" transform="translate(-1.668 -1.1)">
    <path id="Path_27994" data-name="Path 27994" d="M39.725,21.589a8.474,8.474,0,0,0,.39,2.792,15.891,15.891,0,0,0,1.134,2.259,1.254,1.254,0,0,1,.248.722c0,.314-.213.628-.673.941l-2.233,1.318a1.849,1.849,0,0,1-.922.282,1.731,1.731,0,0,1-1.063-.439,9.94,9.94,0,0,1-1.276-1.475c-.354-.533-.709-1.13-1.1-1.851a13.823,13.823,0,0,1-10.42,4.33,10.473,10.473,0,0,1-7.088-2.259A7.589,7.589,0,0,1,14.1,22.185a7.706,7.706,0,0,1,3.225-6.463c2.162-1.632,5.033-2.447,8.683-2.447a31.634,31.634,0,0,1,3.757.251c1.311.157,2.658.408,4.076.69v-2.29c0-2.385-.567-4.048-1.666-5.02-1.134-.973-3.048-1.443-5.777-1.443a18.119,18.119,0,0,0-3.828.408,30.964,30.964,0,0,0-3.828,1.067,11.047,11.047,0,0,1-1.24.408,2.428,2.428,0,0,1-.567.094c-.5,0-.744-.314-.744-.973V4.928a1.8,1.8,0,0,1,.248-1.1,2.641,2.641,0,0,1,.992-.659A22.183,22.183,0,0,1,21.9,1.759a24.135,24.135,0,0,1,5.529-.6c4.218,0,7.3.847,9.286,2.541,1.949,1.694,2.942,4.267,2.942,7.719V21.589Zm-14.39,4.769a12.836,12.836,0,0,0,3.651-.565,8.022,8.022,0,0,0,3.367-2.008,4.824,4.824,0,0,0,1.205-2.008,10.038,10.038,0,0,0,.354-2.73V17.729c-1.028-.22-2.127-.408-3.261-.533a30.122,30.122,0,0,0-3.332-.188,8.958,8.958,0,0,0-5.281,1.255A4.164,4.164,0,0,0,20.3,21.871,4.1,4.1,0,0,0,21.614,25.2,5.3,5.3,0,0,0,25.335,26.358ZM53.8,29.746a2.168,2.168,0,0,1-1.347-.314,2.5,2.5,0,0,1-.744-1.224L43.375,3.955A4.959,4.959,0,0,1,43.056,2.7c0-.5.284-.784.851-.784H47.38a2.153,2.153,0,0,1,1.382.314,2.49,2.49,0,0,1,.709,1.224l5.954,20.771L60.955,3.453a2.125,2.125,0,0,1,.673-1.224,2.683,2.683,0,0,1,1.418-.314h2.835A2.342,2.342,0,0,1,67.3,2.23a2.041,2.041,0,0,1,.673,1.224l5.6,21.022L79.7,3.453a2.61,2.61,0,0,1,.709-1.224A2.541,2.541,0,0,1,81.8,1.916h3.3c.567,0,.886.251.886.784a2.788,2.788,0,0,1-.071.5,4.069,4.069,0,0,1-.248.784L77.117,28.24a2.351,2.351,0,0,1-.744,1.224,2.49,2.49,0,0,1-1.347.314H71.977a2.343,2.343,0,0,1-1.418-.314,2.14,2.14,0,0,1-.673-1.255L64.393,7.971,58.935,28.178a2.354,2.354,0,0,1-.673,1.255,2.415,2.415,0,0,1-1.418.314Zm45.544.847a26.358,26.358,0,0,1-5.458-.565,17.543,17.543,0,0,1-4.076-1.255,2.459,2.459,0,0,1-1.1-.879,2,2,0,0,1-.213-.879v-1.6c0-.659.284-.973.815-.973a2.244,2.244,0,0,1,.638.094c.213.063.532.188.886.314a21.117,21.117,0,0,0,3.9,1.1,23.952,23.952,0,0,0,4.218.377,10.574,10.574,0,0,0,5.175-1.035,3.308,3.308,0,0,0,1.843-2.981,2.873,2.873,0,0,0-.957-2.2,9.318,9.318,0,0,0-3.58-1.632L96.291,17.07a11.022,11.022,0,0,1-5.671-3.2,6.945,6.945,0,0,1-1.772-4.55,6.353,6.353,0,0,1,.957-3.483,8.467,8.467,0,0,1,2.552-2.573,11.871,11.871,0,0,1,3.686-1.632,17.328,17.328,0,0,1,4.466-.533,20.07,20.07,0,0,1,2.375.126c.815.094,1.559.22,2.3.345.709.157,1.382.314,2.02.5a8.289,8.289,0,0,1,1.489.565,3,3,0,0,1,1.063.784,1.552,1.552,0,0,1,.319,1.035V5.932c0,.659-.284,1-.815,1a4.045,4.045,0,0,1-1.347-.377,18.033,18.033,0,0,0-6.8-1.224,10.141,10.141,0,0,0-4.714.879,2.96,2.96,0,0,0-1.666,2.792,2.81,2.81,0,0,0,1.063,2.228,11.137,11.137,0,0,0,3.9,1.726l5.033,1.412a11.032,11.032,0,0,1,5.494,3.012,6.578,6.578,0,0,1,1.63,4.393,7.309,7.309,0,0,1-.922,3.64,8.767,8.767,0,0,1-2.587,2.761,12.041,12.041,0,0,1-3.934,1.757A18.883,18.883,0,0,1,99.339,30.594Z" transform="translate(-8.531)" fill="#252f3e"/>
    <g id="Group_17266" data-name="Group 17266" transform="translate(1.668 42.977)">
      <path id="Path_27995" data-name="Path 27995" d="M98.076,126.848c-11.668,7.624-28.621,11.672-43.2,11.672-20.428,0-38.835-6.683-52.738-17.79-1.1-.879-.106-2.071,1.206-1.381a116.982,116.982,0,0,0,93.027,5.114C98.324,123.679,99.991,125.593,98.076,126.848Z" transform="translate(-1.668 -117.276)" fill="#f90" fill-rule="evenodd"/>
      <path id="Path_27996" data-name="Path 27996" d="M258.918,117.87c-1.318-1.694-8.723-.816-12.08-.408-1,.126-1.161-.753-.251-1.412,5.9-4.142,15.594-2.949,16.723-1.569,1.13,1.412-.314,11.107-5.836,15.751-.847.722-1.663.345-1.286-.6C257.443,126.53,260.236,119.533,258.918,117.87Z" transform="translate(-158.114 -113.192)" fill="#f90" fill-rule="evenodd"/>
    </g>
  </g>
</svg>
