<?xml version="1.0" encoding="utf-8"?>
<!-- Generator: Adobe Illustrator 26.5.0, SVG Export Plug-In . SVG Version: 6.00 Build 0)  -->
<svg version="1.1" id="Layer_1" xmlns="http://www.w3.org/2000/svg" xmlns:xlink="http://www.w3.org/1999/xlink" x="0px" y="0px"
	 viewBox="0 0 100 100" style="enable-background:new 0 0 100 100;" xml:space="preserve">
<style type="text/css">
	.st0{fill-rule:evenodd;clip-rule:evenodd;fill:#7756A3;}
</style>
<path class="st0" d="M20.77,10.17c-5.71,0-9.93,4.99-9.74,10.41c0.18,5.2-0.05,11.94-1.75,17.44c-1.7,5.51-4.58,9-9.28,9.45v5.06
	c4.7,0.45,7.58,3.94,9.28,9.45c1.7,5.5,1.93,12.23,1.75,17.44c-0.19,5.42,4.03,10.41,9.74,10.41h58.47c5.71,0,9.93-4.99,9.74-10.41
	c-0.18-5.2,0.05-11.94,1.75-17.44c1.7-5.51,4.57-9,9.27-9.45v-5.06c-4.7-0.45-7.57-3.94-9.27-9.45c-1.7-5.49-1.93-12.23-1.75-17.44
	c0.19-5.42-4.03-10.41-9.74-10.41L20.77,10.17L20.77,10.17z M67.8,59.21c0,7.46-5.56,11.98-14.79,11.98H37.29
	c-0.94,0-1.69-0.76-1.69-1.69l0,0V30.51c0-0.94,0.76-1.69,1.69-1.69h15.62c7.7,0,12.75,4.17,12.75,10.57c0,4.49-3.4,8.52-7.73,9.22
	v0.23C63.83,49.49,67.8,53.57,67.8,59.21L67.8,59.21z M51.29,34.19h-8.96v12.66h7.55c5.83,0,9.05-2.35,9.05-6.55
	C58.93,36.36,56.16,34.19,51.29,34.19L51.29,34.19z M42.33,51.86v13.95h9.29c6.07,0,9.29-2.44,9.29-7.02s-3.31-6.93-9.68-6.93
	L42.33,51.86L42.33,51.86z"/>
</svg>
