<svg xmlns="http://www.w3.org/2000/svg" viewBox="0 0 60 60"><defs><style>.cls-1{fill:#20bfa9;}.cls-2{fill:#feffff;}</style></defs><g id="Layer_2" data-name="Layer 2"><g id="Layer_1-2" data-name="Layer 1"><path class="cls-1" d="M0,30A30,30,0,1,1,30,60,30,30,0,0,1,0,30Z"/><path class="cls-2" d="M34.55,33.58c0,.19,0,.32,0,.44a1.64,1.64,0,0,0,.83,1.73c.83.44,1.68.84,2.54,1.2A22.35,22.35,0,0,1,44,40.37a5.3,5.3,0,0,1,1.78,5.28,3.21,3.21,0,0,1-1.49,2.1,10.55,10.55,0,0,1-4,1.53,45.4,45.4,0,0,1-8.94.72,60.12,60.12,0,0,1-8.49-.37,17.72,17.72,0,0,1-5.06-1.31,4.31,4.31,0,0,1-2.63-2.71,4.58,4.58,0,0,1,1.1-4.51,12,12,0,0,1,3.38-2.48c1.64-.87,3.34-1.66,5-2.48a7.93,7.93,0,0,0,1-.5,1.92,1.92,0,0,0,.68-2.56,8.73,8.73,0,0,0-.87-1.28,14.65,14.65,0,0,1-3.07-6.89A11,11,0,0,1,23,18.69a7.48,7.48,0,0,1,6.32-4.59,9,9,0,0,1,4.53.49,7.59,7.59,0,0,1,4.76,6.08,13,13,0,0,1-1.15,8,.67.67,0,0,1-.39.33,9.85,9.85,0,0,1-1.26.28c-.14,0-.29-.07-.44-.11a7.8,7.8,0,0,0-1.32-.35,12.36,12.36,0,0,0-1.61,0,2.39,2.39,0,1,0,0,4.78C33.13,33.59,33.81,33.58,34.55,33.58Z"/><path class="cls-2" d="M44.27,26c0,.66,0,1.33,0,2a2.14,2.14,0,0,1-3.05,2,.57.57,0,0,0-.48,0,11.66,11.66,0,0,1-5.13,1.74,2.74,2.74,0,0,0-.55.26,3.24,3.24,0,0,1-1,.41,10,10,0,0,1-1.64,0,1.22,1.22,0,0,1-1.23-1.16A1.17,1.17,0,0,1,32.29,30a14.83,14.83,0,0,1,2,0,.82.82,0,0,1,.57.26.88.88,0,0,0,.85.23,10.5,10.5,0,0,0,4.11-1.39.42.42,0,0,0,.23-.52,7,7,0,0,1,0-1.3c0-1.06,0-2.11,0-3.18a2.18,2.18,0,0,1,1-1.93.57.57,0,0,0,.16-.43A10.69,10.69,0,0,0,20,20.34c-.06.27-.1.55-.16.81a1.07,1.07,0,0,0,.46,1.32,1.6,1.6,0,0,1,.61,1.38c0,1.44,0,2.86,0,4.3a2.13,2.13,0,0,1-4.25.06c-.05-1.46,0-2.92,0-4.39a2,2,0,0,1,.93-1.65.74.74,0,0,0,.26-.47,12.64,12.64,0,0,1,25-1.54c.05.24.09.48.12.73a1.84,1.84,0,0,0,.71,1.63A1.61,1.61,0,0,1,44.28,24C44.27,24.64,44.27,25.32,44.27,26Z"/></g></g></svg>