<svg xmlns="http://www.w3.org/2000/svg" width="96.672" height="52" viewBox="0 0 96.672 52">
  <g id="JQuery-Logo" transform="translate(-33.283 31.18)">
    <path id="Path_19273" data-name="Path 19273" d="M221.331,46.167h0l-.783,2.773.782-2.772Z" transform="translate(-160.42 -44.282)" fill="#1a1a1a"/>
    <path id="Path_19274" data-name="Path 19274" d="M238.309,71.945l-.862-.005Z" transform="translate(-173.425 -64.094)" fill="#1a1a1a"/>
    <path id="Path_19275" data-name="Path 19275" d="M223.228,89.7h0l-5.166.019,5.166-.019Z" transform="translate(-158.523 -77.881)" fill="#1a1a1a"/>
    <path id="Path_19276" data-name="Path 19276" d="M242,71.967l-.863-.005Z" transform="translate(-176.264 -64.111)" fill="#1a1a1a"/>
    <path id="Path_19277" data-name="Path 19277" d="M242.13,76.925l.9-3.432-.9,3.433h0Z" transform="translate(-177.03 -65.325)" fill="#1a1a1a"/>
    <path id="Path_19278" data-name="Path 19278" d="M318.105,20.49l-1.676,7.881Z" transform="translate(-234.217 -24.561)" fill="#1a1a1a"/>
    <path id="Path_19279" data-name="Path 19279" d="M300.971,20.488,299.7,26.376l1.273-5.888Z" transform="translate(-221.338 -24.541)" fill="#1a1a1a"/>
    <path id="Path_19280" data-name="Path 19280" d="M269.444,18.971H265.86a.471.471,0,0,0-.439.354l-1.273,5.888L262.876,31.1a.47.47,0,0,1-.438.353H259.9c-2.51,0-2.22-1.736-1.706-4.115l.015-.072.056-.3c0-.019.007-.039.01-.056l.115-.61.123-.654c.037-.2.094-.486.131-.667l.578-2.827.579-2.827a.285.285,0,0,0-.29-.355h-3.68a.468.468,0,0,0-.437.355l-.791,3.754-.791,3.753a.023.023,0,0,0,0,.006l-.074.349c-.911,4.16-.67,8.128,4.283,8.252l.144,0h7.774a.469.469,0,0,0,.437-.355l1.676-7.88,1.676-7.881a.282.282,0,0,0-.287-.355Z" transform="translate(-185.732 -23.49)" fill="#1a1a1a"/>
    <path id="Path_19281" data-name="Path 19281" d="M383.447,72.621a.284.284,0,0,1,.29.355l-.348,1.7" transform="translate(-285.741 -64.639)" fill="#1a1a1a"/>
    <path id="Path_19282" data-name="Path 19282" d="M381.9,83.129l.348-1.7-.348,1.7h0Z" transform="translate(-284.595 -71.413)" fill="#1a1a1a"/>
    <path id="Path_19283" data-name="Path 19283" d="M358.337,90.251h0c-1.055.009-4.225.032-6.608.032,2.9,0,6.606-.032,6.606-.032Z" transform="translate(-261.429 -78.301)" fill="#1a1a1a"/>
    <path id="Path_19284" data-name="Path 19284" d="M342.177,61.544c0-.186.209-.507.408-.507l-.448-.007C341.936,63.058,342.177,61.544,342.177,61.544Z" transform="translate(-253.933 -55.707)" fill="#1a1a1a"/>
    <path id="Path_19285" data-name="Path 19285" d="M352.9,90.387h0Z" transform="translate(-262.224 -78.406)" fill="#1a1a1a"/>
    <path id="Path_19286" data-name="Path 19286" d="M383.261,72.621a.284.284,0,0,1,.29.355l-.348,1.7-.057.278" transform="translate(-285.555 -64.642)" fill="#1a1a1a"/>
    <path id="Path_19287" data-name="Path 19287" d="M360.352,90.37h0Z" transform="translate(-267.998 -78.393)" fill="#1a1a1a"/>
    <path id="Path_19288" data-name="Path 19288" d="M356.463,90.382h0Z" transform="translate(-264.977 -78.402)" fill="#1a1a1a"/>
    <path id="Path_19289" data-name="Path 19289" d="M355.2,90.385h0Z" transform="translate(-263.982 -78.404)" fill="#1a1a1a"/>
    <path id="Path_19290" data-name="Path 19290" d="M354.067,90.387h0Z" transform="translate(-263.116 -78.406)" fill="#1a1a1a"/>
    <path id="Path_19291" data-name="Path 19291" d="M355.7,90.382h0Z" transform="translate(-264.261 -78.402)" fill="#1a1a1a"/>
    <path id="Path_19292" data-name="Path 19292" d="M357.5,90.37l-.865,0Z" transform="translate(-265.156 -78.393)" fill="#1a1a1a"/>
    <path id="Path_19293" data-name="Path 19293" d="M364.981,90.25h0c-.773.006-2.682.021-4.586.028C362.3,90.271,364.208,90.256,364.981,90.25Z" transform="translate(-268.081 -78.301)" fill="#1a1a1a"/>
    <path id="Path_19294" data-name="Path 19294" d="M381.9,84.041l.292-1.425-.292,1.427h0Z" transform="translate(-284.594 -72.325)" fill="#1a1a1a"/>
    <path id="Path_19295" data-name="Path 19295" d="M354.5,90.387h0Z" transform="translate(-263.36 -78.406)" fill="#1a1a1a"/>
    <path id="Path_19296" data-name="Path 19296" d="M351.99,90.389h0Z" transform="translate(-261.379 -78.407)" fill="#1a1a1a"/>
    <path id="Path_19297" data-name="Path 19297" d="M353.327,90.387h0Z" transform="translate(-262.45 -78.406)" fill="#1a1a1a"/>
    <path id="Path_19298" data-name="Path 19298" d="M127.092,55.311l.557-2.468-.637,2.822-.611,2.874.535-2.52c.041-.195.111-.514.155-.708Z" transform="translate(-87.893 -49.452)" fill="#1a1a1a"/>
    <path id="Path_19299" data-name="Path 19299" d="M141.05,18.793h-3.937a.477.477,0,0,0-.442.353l-.373,1.648-.373,1.648a.277.277,0,0,0,.282.353h3.967a.472.472,0,0,0,.439-.353l.361-1.648.361-1.647h0a.279.279,0,0,0-.285-.353Z" transform="translate(-95.186 -23.221)" fill="#1a1a1a"/>
    <path id="Path_19300" data-name="Path 19300" d="M150.448,42.27h0l-1.155,5.342Z" transform="translate(-105.441 -41.308)" fill="#1a1a1a"/>
    <path id="Path_19301" data-name="Path 19301" d="M105.245,118.088s1.984.026,3.246.026c-.958,0-2.541-.018-3.248-.026h0Z" transform="translate(-71.674 -99.64)" fill="#1a1a1a"/>
    <path id="Path_19302" data-name="Path 19302" d="M132.3,42.269l-.557,2.468Z" transform="translate(-91.987 -41.28)" fill="#1a1a1a"/>
    <path id="Path_19303" data-name="Path 19303" d="M115.456,40.756h-3.968a.476.476,0,0,0-.442.353l-.557,2.468-.557,2.468c-.044.194-.114.513-.155.708l-.535,2.52-.535,2.52c-.042.194-.127.508-.191.7,0,0-.741,2.206-1.987,2.181l-.156,0-1.078-.02h0a.472.472,0,0,0-.445.345l-.411,1.73-.411,1.729a.277.277,0,0,0,.276.356c.707.009,2.289.026,3.248.026,3.113,0,4.754-1.725,5.805-6.687l1.231-5.7,1.155-5.342a.28.28,0,0,0-.286-.353Z" transform="translate(-70.733 -40.361)" fill="#1a1a1a"/>
    <path id="Path_19304" data-name="Path 19304" d="M393.5,42.452a.281.281,0,0,1-.286-.355L396.2,28.116" transform="translate(-293.325 -30.51)" fill="#1a1a1a"/>
    <path id="Path_19305" data-name="Path 19305" d="M412.24,68.409l1.207-5.967Z" transform="translate(-307.954 -56.846)" fill="#1a1a1a"/>
    <path id="Path_19306" data-name="Path 19306" d="M393.261,65.23a1.543,1.543,0,0,1,.032-.531l1.417-6.636-1.492,6.99a.281.281,0,0,0,.286.355h.363c-.2,0-.581-.08-.605-.177Z" transform="translate(-293.31 -53.49)" fill="#1a1a1a"/>
    <path id="Path_19307" data-name="Path 19307" d="M409.393,87.115a1.879,1.879,0,0,1-.559.08h.362a.462.462,0,0,0,.434-.355l.072-.355C409.662,86.68,409.5,87.071,409.393,87.115Z" transform="translate(-305.329 -75.415)" fill="#1a1a1a"/>
    <path id="Path_19308" data-name="Path 19308" d="M414.83,66.575l.533-2.634a.028.028,0,0,1,0,.005l-.532,2.629Z" transform="translate(-309.94 -57.964)" fill="#1a1a1a"/>
    <path id="Path_19309" data-name="Path 19309" d="M464.9,32.128l.164.679a.275.275,0,0,1-.279.353" transform="translate(-348.563 -33.462)" fill="#1a1a1a"/>
    <path id="Path_19310" data-name="Path 19310" d="M412.55,77.853l.531-2.629Z" transform="translate(-308.186 -66.649)" fill="#1a1a1a"/>
    <path id="Path_19311" data-name="Path 19311" d="M464.58,29.147l.163.7Z" transform="translate(-348.403 -31.165)" fill="#1a1a1a"/>
    <path id="Path_19312" data-name="Path 19312" d="M417.11,52.876c.04-.195.105-.511.146-.7l.569-2.666-.645,3.02-.071.35Z" transform="translate(-311.697 -46.859)" fill="#1a1a1a"/>
    <path id="Path_19313" data-name="Path 19313" d="M401.181,27.135c-.04.188-.09.426-.124.583l-1.417,6.637,1.492-6.991.048-.229Z" transform="translate(-298.26 -29.672)" fill="#1a1a1a"/>
    <path id="Path_19314" data-name="Path 19314" d="M410.33,22.858l-.164-.679-.163-.7-.082-.352c-.322-1.252-1.268-1.975-3.323-1.975l-3.2,0-2.945,0H397.14a.467.467,0,0,0-.437.354h0l-.146.692-.173.818-.048.229-1.492,6.991-1.417,6.636a1.542,1.542,0,0,0-.032.531c.024.1.406.177.6.177h2.99a1.878,1.878,0,0,0,.559-.08c.109-.044.269-.435.309-.63l.531-2.629.532-2.629v-.005l.071-.35.645-3.02.569-2.667a.469.469,0,0,1,.437-.353l9.408,0a.275.275,0,0,0,.279-.353Z" transform="translate(-293.826 -23.627)" fill="#1a1a1a"/>
    <path id="Path_19315" data-name="Path 19315" d="M462.909,8.7l-.724,0h-3.011a.77.77,0,0,0-.566.3l-6.658,9.755c-.113.165-.241.14-.285-.054l-.49-2.149a.476.476,0,0,0-.443-.353h-4.281a.259.259,0,0,0-.263.348l1.918,6.719a1.585,1.585,0,0,1,.009.7l-.836,3.252a.268.268,0,0,0,.272.351h4.231a.492.492,0,0,0,.452-.351l.836-3.252a2.163,2.163,0,0,1,.308-.64L464.188,8.98c.12-.159.055-.288-.144-.287L462.91,8.7Z" transform="translate(-334.294 -15.599)" fill="#1a1a1a"/>
    <path id="Path_19316" data-name="Path 19316" d="M334.267,24.2v0a.436.436,0,0,1-.423.374h-5.427a.233.233,0,0,1-.255-.285.048.048,0,0,1,.005-.013l0,0c0-.006,0-.012,0-.018l.025-.092a3.4,3.4,0,0,1,3.558-2.283c2.234,0,2.67,1.091,2.518,2.318Zm-1.592-6.264c-6.966,0-8.617,4.228-9.543,8.5-.926,4.35-.846,8.417,6.362,8.417h1.142l.865,0h.015c1.9-.007,3.813-.022,4.586-.028a.469.469,0,0,0,.432-.356l.292-1.427.057-.278.348-1.7a.284.284,0,0,0-.29-.355h-6.481c-2.577,0-3.343-.685-3.061-2.7h10.366a.427.427,0,0,0,.377-.267.376.376,0,0,0,.025-.091h0c1.538-5.8,1.1-9.709-5.492-9.709Z" transform="translate(-239.18 -22.701)" fill="#1a1a1a"/>
    <path id="Path_19317" data-name="Path 19317" d="M176.01,10.43l-.1.347s0,0,0,0l-.782,2.772-.782,2.772a.507.507,0,0,1-.461.348h-4.14c-3.14,0-3.905-2.456-3.14-6.079.765-3.706,2.264-6.009,5.355-6.242C176.184,4.03,177.03,7,176.01,10.43Zm2.839,6.027a46.43,46.43,0,0,0,2.4-7.477c.6-3.665-1.23-8.98-8.318-8.98-7.047,0-10.107,5.074-11.275,10.591-1.167,5.556.362,10.429,7.369,10.389l5.528-.021,5.166-.019a.5.5,0,0,0,.453-.352l.9-3.433a.268.268,0,0,0-.27-.352l-.863-.005-.862-.005a.221.221,0,0,1-.246-.256.332.332,0,0,1,.021-.081Z" transform="translate(-114.643 -8.925)" fill="#1a1a1a"/>
    <path id="Path_19318" data-name="Path 19318" d="M384.359,56.129a.238.238,0,1,1-.238-.237A.238.238,0,0,1,384.359,56.129Z" transform="translate(-286.124 -51.748)" fill="#1a1a1a"/>
    <g id="Group_15746" data-name="Group 15746" transform="translate(72.056 -31.18)">
      <path id="Path_19319" data-name="Path 19319" d="M1.4,24.184c-1.946,2.8-1.7,6.435-.217,9.407.035.071.072.141.109.211.023.044.045.09.07.134.014.026.029.052.043.077.025.047.051.092.078.138q.069.122.142.243c.027.044.053.089.081.133.054.087.109.172.165.258.023.036.046.073.07.108.078.116.157.231.239.344l.007.009.04.054c.071.1.144.194.217.289l.082.1q.1.124.2.247l.077.092c.091.108.185.215.28.32l.006.006.011.012c.093.1.188.2.284.3l.091.092q.112.113.227.223c.031.03.062.06.093.088q.153.144.311.283l0,0,.054.046c.093.08.188.16.283.239l.117.093q.117.093.236.184l.126.1q.131.1.264.19l.1.068.026.019c.084.058.171.114.257.17l.111.074c.132.084.266.166.4.246l.111.063c.1.058.2.114.3.169.055.03.111.058.167.086.072.038.143.076.216.112l.05.024.088.043q.17.081.342.158l.072.032q.2.086.4.166l.1.038c.124.048.25.1.377.14l.047.017c.139.048.279.093.42.137l.1.03a4.083,4.083,0,0,0,.434.123c9.41,1.716,12.143-5.655,12.143-5.655-2.3,2.991-6.371,3.78-10.232,2.9-.146-.033-.288-.079-.431-.121l-.107-.032q-.209-.064-.415-.135l-.057-.021c-.123-.043-.245-.089-.366-.136l-.1-.04q-.2-.079-.395-.164l-.079-.035c-.112-.051-.223-.1-.333-.155l-.1-.046c-.087-.042-.172-.087-.258-.131-.057-.03-.115-.059-.172-.09-.1-.056-.207-.114-.309-.173l-.1-.058c-.136-.08-.27-.162-.4-.246-.037-.023-.072-.048-.109-.072-.1-.062-.192-.125-.286-.19L7.1,35.459q-.137-.1-.271-.2l-.12-.091c-.082-.063-.163-.126-.244-.191l-.109-.087c-.1-.084-.2-.169-.3-.256L6.02,34.61c-.108-.1-.215-.193-.32-.291l-.09-.087c-.078-.074-.154-.149-.23-.225l-.09-.09q-.144-.147-.282-.3L4.994,33.6c-.1-.107-.193-.215-.286-.325l-.075-.089c-.07-.084-.138-.169-.206-.254l-.075-.094c-.081-.105-.16-.21-.238-.316C1.971,29.6,1.2,25.569,2.914,22.257" transform="translate(0 -19.211)" fill="#1a1a1a"/>
      <path id="Path_19320" data-name="Path 19320" d="M28.382,15.086a6.765,6.765,0,0,0-.233,6.877A8.96,8.96,0,0,0,28.771,23a4.942,4.942,0,0,0,.724.9c.1.112.207.221.316.328l.083.082c.105.1.212.2.323.3l.013.011,0,0c.122.107.248.21.377.312l.085.067c.129.1.26.2.394.288l.011.009c.059.041.12.079.18.119.029.019.056.039.085.056q.144.092.292.179l.041.024c.085.049.172.1.258.144.03.017.061.032.092.048.06.031.12.063.181.093l.027.013c.124.061.249.12.377.176l.083.034c.1.043.205.085.309.125l.132.048c.094.035.188.067.284.1l.128.041a3.094,3.094,0,0,0,.41.119c7.265,1.2,8.943-4.39,8.943-4.39a6.9,6.9,0,0,1-7.565,2.406c-.139-.036-.276-.076-.411-.119l-.124-.04q-.145-.047-.288-.1l-.13-.048q-.156-.06-.31-.125l-.083-.035q-.192-.084-.379-.176c-.064-.031-.127-.064-.19-.1l-.11-.056c-.081-.044-.161-.089-.241-.136l-.058-.032q-.147-.086-.291-.178c-.03-.019-.058-.039-.088-.059-.063-.041-.127-.083-.189-.125-.134-.092-.264-.189-.393-.287l-.088-.07a8.761,8.761,0,0,1-2.967-4.229,6.562,6.562,0,0,1,.512-5.264" transform="translate(-20.946 -12.47)" fill="#1a1a1a"/>
      <path id="Path_19321" data-name="Path 19321" d="M51.294,10.064a4.234,4.234,0,0,0-.335,4.085,5.753,5.753,0,0,0,3.3,3.086c.06.022.12.042.18.063l.079.025a2.273,2.273,0,0,0,.259.075c4.012.775,5.1-2.059,5.389-2.476-.953,1.372-2.555,1.7-4.52,1.225-.155-.038-.326-.094-.476-.147a5.753,5.753,0,0,1-1.555-.839c-1.759-1.334-2.851-3.88-1.7-5.953" transform="translate(-38.778 -9.208)" fill="#1a1a1a"/>
    </g>
    <path id="Path_19322" data-name="Path 19322" d="M232.262,112.595l-1.156,2.634h-1.277l.1-2.393-.94,2.393h-1.236l-.032-2.634.137-.65h.875l-.169,2.6.972-2.6h1.221l-.088,2.634.964-2.634h.763Z" transform="translate(-165.959 -94.931)" fill="#1a1a1a"/>
    <path id="Path_19323" data-name="Path 19323" d="M249.277,113.271c.113-.514.08-.61-.185-.61h-.4l-.257,1.2-.394,1.26h-.747l.61-2.858.089-.418h.682l.088.193a1.792,1.792,0,0,1,.779-.233c.819,0,.755.618.578,1.461h-.843Z" transform="translate(-181.013 -94.828)" fill="#1a1a1a"/>
    <path id="Path_19324" data-name="Path 19324" d="M262.226,106.921c-.329,0-.538-.1-.458-.5a.586.586,0,0,1,.666-.5c.322,0,.538.1.45.5a.58.58,0,0,1-.659.5Zm-.353,3.694h-.739l.145-1.285.257-1.188-.514-.113.144-.7h1.4l-.7,3.284Z" transform="translate(-191.574 -90.316)" fill="#1a1a1a"/>
    <path id="Path_19325" data-name="Path 19325" d="M270.849,109.894l-.923.113-.265,1.253c-.072.345-.072.442.233.442h.618l-.129.658a4.322,4.322,0,0,1-.8.169c-.947,0-.94-.522-.771-1.3l.257-1.228-.514-.112.152-.7h.538l.305-.828h.731l-.177.828h.9l-.152.706Z" transform="translate(-197.373 -92.183)" fill="#1a1a1a"/>
    <path id="Path_19326" data-name="Path 19326" d="M280.7,112.527a.7.7,0,0,0-.747.626l1.236-.1c.056-.273,0-.522-.49-.522Zm-.867,1.22c-.057.4.1.538.61.538h1.293l-.128.61a6.258,6.258,0,0,1-1.357.217c-1.437,0-1.454-.81-1.269-1.678.185-.851.514-1.694,1.9-1.694,1.341,0,1.406.81,1.076,2.007h-2.128Z" transform="translate(-205.34 -94.775)" fill="#1a1a1a"/>
    <path id="Path_19327" data-name="Path 19327" d="M302.206,111.086h-.738l.145-1.285.522-2.441-.514-.12.153-.7h1.405l-.972,4.545Z" transform="translate(-222.702 -90.789)" fill="#1a1a1a"/>
    <path id="Path_19328" data-name="Path 19328" d="M310.147,112.527a.7.7,0,0,0-.747.626l1.237-.1c.056-.273,0-.522-.49-.522Zm-.867,1.22c-.056.4.1.538.61.538h1.293l-.129.61a6.261,6.261,0,0,1-1.357.217c-1.437,0-1.453-.81-1.268-1.678.185-.851.514-1.694,1.9-1.694,1.341,0,1.405.81,1.076,2.007H309.28Z" transform="translate(-228.007 -94.775)" fill="#1a1a1a"/>
    <path id="Path_19329" data-name="Path 19329" d="M325.87,112.617s-.94.008-1.2.008c-.546,0-.6.168-.642.345l-.032.161,1.735.129a4.767,4.767,0,0,1-.064.867,1.5,1.5,0,0,1-1.614,1.052,7.174,7.174,0,0,1-1.261-.184l.136-.634h1.2c.53,0,.6-.145.635-.289l.04-.209-1.7-.129a2.744,2.744,0,0,1,.024-.851,1.5,1.5,0,0,1,1.63-1.076,7.475,7.475,0,0,1,1.261.176l-.144.635Z" transform="translate(-239.128 -94.825)" fill="#1a1a1a"/>
    <path id="Path_19330" data-name="Path 19330" d="M339.7,112.617s-.939.008-1.2.008c-.546,0-.6.168-.642.345l-.033.161,1.735.129a4.767,4.767,0,0,1-.064.867,1.5,1.5,0,0,1-1.614,1.052,7.179,7.179,0,0,1-1.261-.184l.137-.634h1.2c.53,0,.6-.145.635-.289l.04-.209-1.7-.129a2.744,2.744,0,0,1,.024-.851,1.5,1.5,0,0,1,1.63-1.076,7.476,7.476,0,0,1,1.26.176l-.145.635Z" transform="translate(-249.774 -94.825)" fill="#1a1a1a"/>
    <path id="Path_19331" data-name="Path 19331" d="M351.08,123.5h-.642l.024-.482c-.233-.015-.353-.184-.3-.466a.582.582,0,0,1,.667-.5c.321,0,.537.1.45.5l-.2.948Z" transform="translate(-260.167 -102.684)" fill="#1a1a1a"/>
    <path id="Path_19332" data-name="Path 19332" d="M366.849,108.617c-.482,0-.65.289-.763.819s-.08.843.4.843h.667l.37-1.662Zm1.1,2.047-.089.426-.674-.008-.1-.209a3.26,3.26,0,0,1-1,.256c-1.028,0-1.076-.843-.892-1.694.185-.867.586-1.686,1.606-1.686a3.1,3.1,0,0,1,.867.185l.409-1.389h.739Z" transform="translate(-271.71 -90.792)" fill="#1a1a1a"/>
    <path id="Path_19333" data-name="Path 19333" d="M382.507,112.617c-.626,0-.827.353-.94.867s-.056.875.562.875c.643,0,.836-.345.948-.875C383.19,112.986,383.158,112.617,382.507,112.617Zm-.546,2.553c-1.325,0-1.43-.827-1.253-1.686a1.86,1.86,0,0,1,1.976-1.678c1.317,0,1.437.819,1.252,1.678A1.854,1.854,0,0,1,381.962,115.171Z" transform="translate(-283.655 -94.825)" fill="#1a1a1a"/>
    <path id="Path_19334" data-name="Path 19334" d="M406.888,115.094l.145-1.269.072-.361c.1-.482.169-.835-.337-.835h-.393a3.115,3.115,0,0,1-.1.827l-.345,1.638h-.747l.144-1.269.072-.361c.1-.482.168-.835-.337-.835h-.321l-.53,2.465h-.859l.7-3.284h.674l.1.2a2.191,2.191,0,0,1,.827-.241.6.6,0,0,1,.562.289,2.446,2.446,0,0,1,.948-.289c1.027,0,1,.835.81,1.686l-.345,1.638h-.747Z" transform="translate(-301.15 -94.797)" fill="#1a1a1a"/>
    <path id="Path_19335" data-name="Path 19335" d="M426.987,112.617c-.627,0-.827.353-.94.867s-.056.875.562.875c.642,0,.836-.345.948-.875C427.67,112.986,427.637,112.617,426.987,112.617Zm-.546,2.553c-1.325,0-1.429-.827-1.253-1.686a1.859,1.859,0,0,1,1.975-1.678c1.317,0,1.437.819,1.252,1.678A1.854,1.854,0,0,1,426.441,115.171Z" transform="translate(-317.891 -94.825)" fill="#1a1a1a"/>
    <path id="Path_19336" data-name="Path 19336" d="M442.277,113.271c.112-.514.08-.61-.184-.61h-.4l-.257,1.2-.394,1.26h-.747l.61-2.858.089-.418h.682l.088.193a1.792,1.792,0,0,1,.779-.233c.819,0,.754.618.578,1.461h-.843Z" transform="translate(-329.786 -94.828)" fill="#1a1a1a"/>
    <path id="Path_19337" data-name="Path 19337" d="M455.2,112.527a.7.7,0,0,0-.746.626l1.236-.1c.057-.273,0-.522-.49-.522Zm-.867,1.22c-.056.4.1.538.61.538h1.293l-.128.61a6.262,6.262,0,0,1-1.357.217c-1.437,0-1.453-.81-1.269-1.678.185-.851.514-1.694,1.9-1.694,1.341,0,1.405.81,1.076,2.007h-2.128Z" transform="translate(-339.831 -94.775)" fill="#1a1a1a"/>
    <path id="Path_19338" data-name="Path 19338" d="M468.031,122.977c-.337,0-.546-.1-.457-.49s.329-.5.667-.5c.313,0,.529.1.45.5A.589.589,0,0,1,468.031,122.977Z" transform="translate(-350.682 -102.63)" fill="#1a1a1a"/>
  </g>
</svg>
