<svg xmlns="http://www.w3.org/2000/svg" xmlns:xlink="http://www.w3.org/1999/xlink" viewBox="0 0 1000 1000"
                width="1000" height="1000" preserveAspectRatio="xMidYMid slice"
                style="width: 100%; height: 100%; transform: translate3d(0px, 0px, 0px); content-visibility: visible;">
                <defs>
                    <clipPath id="__lottie_element_22">
                        <rect width="1000" height="1000" x="0" y="0"></rect>
                    </clipPath>
                    <g id="__lottie_element_32">
                        <g transform="matrix(-5.144257545471191,2.5237982273101807,-2.5237982273101807,-5.144257545471191,500,500)"
                            opacity="1" style="display: block;">
                            <path stroke-linecap="butt" stroke-linejoin="miter" fill-opacity="0" stroke-miterlimit="4"
                                stroke="rgb(89,232,167)" stroke-opacity="1" stroke-width="64"
                                d=" M11.274999618530273,-50.45800018310547 C34.375,-45.30400085449219 51.66600036621094,-24.6560001373291 51.66600036621094,0 C51.66550064086914,28.530195236206055 28.514190673828125,51.69449996948242 0,51.69449996948242 C-28.514190673828125,51.69449996948242 -51.66550064086914,28.530195236206055 -51.66550064086914,0 C-51.66600036621094,-3.871999979019165 -51.23899841308594,-7.644999980926514 -50.430999755859375,-11.274999618530273">
                            </path>
                            <g opacity="1" transform="matrix(1,0,0,1,0,0)"></g>
                        </g>
                    </g>
                    <mask id="__lottie_element_32_1" mask-type="alpha">
                        <use xlink:href="#__lottie_element_32"></use>
                    </mask>
                    <g id="__lottie_element_38">
                        <g transform="matrix(-5.144257545471191,2.5237982273101807,-2.5237982273101807,-5.144257545471191,500,500)"
                            opacity="1" style="display: block;">
                            <path stroke-linecap="butt" stroke-linejoin="miter" fill-opacity="0" stroke-miterlimit="4"
                                stroke="rgb(89,232,167)" stroke-opacity="1" stroke-width="64"
                                d=" M11.274999618530273,-50.45800018310547 C34.375,-45.30400085449219 51.66600036621094,-24.6560001373291 51.66600036621094,0 C51.66550064086914,28.530195236206055 28.514190673828125,51.69449996948242 0,51.69449996948242 C-28.514190673828125,51.69449996948242 -51.66550064086914,28.530195236206055 -51.66550064086914,0 C-51.66600036621094,-3.871999979019165 -51.23899841308594,-7.644999980926514 -50.430999755859375,-11.274999618530273">
                            </path>
                            <g opacity="1" transform="matrix(1,0,0,1,0,0)"></g>
                        </g>
                    </g>
                    <mask id="__lottie_element_38_1" mask-type="alpha">
                        <use xlink:href="#__lottie_element_38"></use>
                    </mask>
                </defs>
                <g clip-path="url(#__lottie_element_22)">
                    <g transform="matrix(1,0,0,1,765.8920288085938,480.7909851074219)" opacity="1"
                        style="display: block;">
                        <g opacity="1" transform="matrix(1,0,0,1,0,0)">
                            <path stroke-linecap="butt" stroke-linejoin="miter" fill-opacity="0" stroke-miterlimit="4"
                                stroke="rgb(221,224,238)" stroke-opacity="1" stroke-width="20"
                                d=" M0,-51.69449996948242 C28.514190673828125,-51.69449996948242 51.66550064086914,-28.530195236206055 51.66550064086914,0 C51.66550064086914,28.530195236206055 28.514190673828125,51.69449996948242 0,51.69449996948242 C-28.514190673828125,51.69449996948242 -51.66550064086914,28.530195236206055 -51.66550064086914,0 C-51.66550064086914,-28.530195236206055 -28.514190673828125,-51.69449996948242 0,-51.69449996948242z">
                            </path>
                        </g>
                    </g>
                    <g transform="matrix(0.8492780923843384,0.5279548168182373,-0.5279548168182373,0.8492780923843384,466.2960510253906,479.04791259765625)"
                        opacity="1" style="display: block;">
                        <g opacity="1" transform="matrix(1,0,0,1,0,0)">
                            <path fill="rgb(253,253,254)" fill-opacity="1"
                                d=" M39.691001892089844,-271.3949890136719 C114.62100219726562,-271.3949890136719 182.4709930419922,-240.98500061035156 231.56100463867188,-191.8350067138672 C231.56100463867188,-191.8350067138672 39.691001892089844,0.14499999582767487 39.691001892089844,0.14499999582767487 C39.691001892089844,0.14499999582767487 231.41099548339844,191.97500610351562 231.41099548339844,191.97500610351562 C182.8209991455078,240.55499267578125 115.9010009765625,270.7850036621094 41.930999755859375,271.385009765625 C41.930999755859375,271.385009765625 39.691001892089844,271.3949890136719 39.691001892089844,271.3949890136719 C-110.11900329589844,271.3949890136719 -231.5590057373047,149.88499450683594 -231.5590057373047,0.004999999888241291 C-231.5590057373047,-149.88499450683594 -110.11900329589844,-271.3949890136719 39.691001892089844,-271.3949890136719z">
                            </path>
                        </g>
                    </g>
                    <g transform="matrix(0.8492780923843384,0.5279548168182373,-0.5279548168182373,0.8492780923843384,466.2960510253906,479.04791259765625)"
                        opacity="1" style="display: block;">
                        <g opacity="1" transform="matrix(1,0,0,1,0,0)">
                            <path fill="rgb(244,245,250)" fill-opacity="1"
                                d=" M39.691001892089844,-271.3949890136719 C114.62100219726562,-271.3949890136719 182.4709930419922,-240.98500061035156 231.56100463867188,-191.8350067138672 C231.56100463867188,-191.8350067138672 217.42100524902344,-177.68499755859375 217.42100524902344,-177.68499755859375 C171.9510040283203,-223.22500610351562 109.10099792480469,-251.39500427246094 39.691001892089844,-251.39500427246094 C-99.06900024414062,-251.39500427246094 -211.5590057373047,-138.84500122070312 -211.5590057373047,0.004999999888241291 C-211.5590057373047,138.84500122070312 -99.06900024414062,251.39500427246094 39.691001892089844,251.39500427246094 C109.03099822998047,251.39500427246094 171.81100463867188,223.28500366210938 217.27099609375,177.8350067138672 C217.27099609375,177.8350067138672 231.41099548339844,191.97500610351562 231.41099548339844,191.97500610351562 C182.8209991455078,240.55499267578125 115.9010009765625,270.7850036621094 41.930999755859375,271.385009765625 C41.930999755859375,271.385009765625 39.691001892089844,271.3949890136719 39.691001892089844,271.3949890136719 C-110.11900329589844,271.3949890136719 -231.5590057373047,149.88499450683594 -231.5590057373047,0.004999999888241291 C-231.5590057373047,-149.88499450683594 -110.11900329589844,-271.3949890136719 39.691001892089844,-271.3949890136719z">
                            </path>
                        </g>
                    </g>
                    <g transform="matrix(0.8492780923843384,0.5279548168182373,-0.5279548168182373,0.8492780923843384,475.93316650390625,485.038818359375)"
                        opacity="1" style="display: block;">
                        <g opacity="1" transform="matrix(1,0,0,1,0,0)">
                            <path fill="rgb(246,247,251)" fill-opacity="1"
                                d=" M28.340999603271484,-193.85400390625 C81.88099670410156,-193.85400390625 130.34100341796875,-172.12399291992188 165.41099548339844,-137.00399780273438 C165.41099548339844,-137.00399780273438 28.340999603271484,0.1459999978542328 28.340999603271484,0.1459999978542328 C28.340999603271484,0.1459999978542328 165.26100158691406,137.14599609375 165.26100158691406,137.14599609375 C130.56100463867188,171.83599853515625 82.77100372314453,193.41600036621094 29.94099998474121,193.8459930419922 C29.94099998474121,193.8459930419922 28.340999603271484,193.8560028076172 28.340999603271484,193.8560028076172 C-78.66899871826172,193.8560028076172 -165.40899658203125,107.06600189208984 -165.40899658203125,-0.004000000189989805 C-165.40899658203125,-107.06400299072266 -78.66899871826172,-193.85400390625 28.340999603271484,-193.85400390625z">
                            </path>
                        </g>
                    </g>
                    <g transform="matrix(0.8492780923843384,0.5279548168182373,-0.5279548168182373,0.8492780923843384,475.93316650390625,485.038818359375)"
                        opacity="1" style="display: block;">
                        <g opacity="1" transform="matrix(1,0,0,1,0,0)">
                            <path fill="rgb(221,224,238)" fill-opacity="1"
                                d=" M28.340999603271484,-193.85400390625 C81.88099670410156,-193.85400390625 130.34100341796875,-172.12399291992188 165.41099548339844,-137.00399780273438 C165.41099548339844,-137.00399780273438 151.27099609375,-122.85399627685547 151.27099609375,-122.85399627685547 C119.82099914550781,-154.36399841308594 76.35099792480469,-173.85400390625 28.340999603271484,-173.85400390625 C-67.61900329589844,-173.85400390625 -145.40899658203125,-96.02400207519531 -145.40899658203125,-0.004000000189989805 C-145.40899658203125,96.01599884033203 -67.61900329589844,173.8560028076172 28.340999603271484,173.8560028076172 C76.28099822998047,173.8560028076172 119.69100189208984,154.42599487304688 151.13099670410156,123.00599670410156 C151.13099670410156,123.00599670410156 165.26100158691406,137.14599609375 165.26100158691406,137.14599609375 C130.56100463867188,171.83599853515625 82.77100372314453,193.41600036621094 29.94099998474121,193.8459930419922 C29.94099998474121,193.8459930419922 28.340999603271484,193.8560028076172 28.340999603271484,193.8560028076172 C-78.66899871826172,193.8560028076172 -165.40899658203125,107.06600189208984 -165.40899658203125,-0.004000000189989805 C-165.40899658203125,-107.06400299072266 -78.66899871826172,-193.85400390625 28.340999603271484,-193.85400390625z">
                            </path>
                        </g>
                    </g>
                    <g transform="matrix(0.8492780923843384,0.5279548168182373,-0.5279548168182373,0.8492780923843384,485.5721740722656,491.0309143066406)"
                        opacity="1" style="display: block;">
                        <g opacity="1" transform="matrix(1,0,0,1,0,0)">
                            <path fill="rgb(238,239,244)" fill-opacity="1"
                                d=" M16.989999771118164,-116.31199645996094 C49.130001068115234,-116.31199645996094 78.22000122070312,-103.26200103759766 99.26000213623047,-82.1719970703125 C99.26000213623047,-82.1719970703125 16.989999771118164,0.14800000190734863 16.989999771118164,0.14800000190734863 C16.989999771118164,0.14800000190734863 99.12000274658203,82.31800079345703 99.12000274658203,82.31800079345703 C78.29000091552734,103.11799621582031 49.630001068115234,116.0479965209961 17.950000762939453,116.30799865722656 C17.950000762939453,116.30799865722656 16.989999771118164,116.30799865722656 16.989999771118164,116.30799865722656 C-47.209999084472656,116.30799865722656 -99.26000213623047,64.23799896240234 -99.26000213623047,-0.0020000000949949026 C-99.26000213623047,-64.24199676513672 -47.209999084472656,-116.31199645996094 16.989999771118164,-116.31199645996094z">
                            </path>
                        </g>
                    </g>
                    <g transform="matrix(0.8492780923843384,0.5279548168182373,-0.5279548168182373,0.8492780923843384,485.5721740722656,491.0309143066406)"
                        opacity="1" style="display: block;">
                        <g opacity="1" transform="matrix(1,0,0,1,0,0)">
                            <path fill="rgb(208,210,220)" fill-opacity="1"
                                d=" M16.989999771118164,-116.31199645996094 C49.130001068115234,-116.31199645996094 78.22000122070312,-103.26200103759766 99.26000213623047,-82.1719970703125 C99.26000213623047,-82.1719970703125 85.12000274658203,-68.02200317382812 85.12000274658203,-68.02200317382812 C67.69999694824219,-85.50199890136719 43.599998474121094,-96.31199645996094 16.989999771118164,-96.31199645996094 C-36.16999816894531,-96.31199645996094 -79.26000213623047,-53.19200134277344 -79.26000213623047,-0.0020000000949949026 C-79.26000213623047,53.198001861572266 -36.16999816894531,96.30799865722656 16.989999771118164,96.30799865722656 C43.529998779296875,96.30799865722656 67.55999755859375,85.55799865722656 84.9800033569336,68.16799926757812 C84.9800033569336,68.16799926757812 99.12000274658203,82.31800079345703 99.12000274658203,82.31800079345703 C78.29000091552734,103.11799621582031 49.630001068115234,116.0479965209961 17.950000762939453,116.30799865722656 C17.950000762939453,116.30799865722656 16.989999771118164,116.30799865722656 16.989999771118164,116.30799865722656 C-47.209999084472656,116.30799865722656 -99.26000213623047,64.23799896240234 -99.26000213623047,-0.0020000000949949026 C-99.26000213623047,-64.24199676513672 -47.209999084472656,-116.31199645996094 16.989999771118164,-116.31199645996094z">
                            </path>
                        </g>
                    </g>
                    <g mask="url(#__lottie_element_38_1)" style="display: block;">
                        <g transform="matrix(1,0,0,1,765.8920288085938,480.7909851074219)" opacity="1">
                            <path fill="rgb(89,232,167)" fill-opacity="1"
                                d=" M0,-51.69449996948242 C28.514190673828125,-51.69449996948242 51.66550064086914,-28.530195236206055 51.66550064086914,0 C51.66550064086914,28.530195236206055 28.514190673828125,51.69449996948242 0,51.69449996948242 C-28.514190673828125,51.69449996948242 -51.66550064086914,28.530195236206055 -51.66550064086914,0 C-51.66550064086914,-28.530195236206055 -28.514190673828125,-51.69449996948242 0,-51.69449996948242z">
                            </path>
                            <g opacity="1" transform="matrix(1,0,0,1,0,0)">
                                <path stroke-linecap="butt" stroke-linejoin="miter" fill-opacity="0"
                                    stroke-miterlimit="4" stroke="rgb(89,232,167)" stroke-opacity="1" stroke-width="20"
                                    d=" M0,-51.69449996948242 C28.514190673828125,-51.69449996948242 51.66550064086914,-28.530195236206055 51.66550064086914,0 C51.66550064086914,28.530195236206055 28.514190673828125,51.69449996948242 0,51.69449996948242 C-28.514190673828125,51.69449996948242 -51.66550064086914,28.530195236206055 -51.66550064086914,0 C-51.66550064086914,-28.530195236206055 -28.514190673828125,-51.69449996948242 0,-51.69449996948242z">
                                </path>
                            </g>
                        </g>
                    </g>
                    <g mask="url(#__lottie_element_32_1)" style="display: block;">
                        <g transform="matrix(1,0,0,1,765.8920288085938,480.7909851074219)" opacity="1">
                            <path fill="rgb(89,232,167)" fill-opacity="1"
                                d=" M0,-51.69449996948242 C28.514190673828125,-51.69449996948242 51.66550064086914,-28.530195236206055 51.66550064086914,0 C51.66550064086914,28.530195236206055 28.514190673828125,51.69449996948242 0,51.69449996948242 C-28.514190673828125,51.69449996948242 -51.66550064086914,28.530195236206055 -51.66550064086914,0 C-51.66550064086914,-28.530195236206055 -28.514190673828125,-51.69449996948242 0,-51.69449996948242z">
                            </path>
                            <g opacity="1" transform="matrix(1,0,0,1,0,0)">
                                <path stroke-linecap="butt" stroke-linejoin="miter" fill-opacity="0"
                                    stroke-miterlimit="4" stroke="rgb(89,232,167)" stroke-opacity="1" stroke-width="20"
                                    d=" M0,-51.69449996948242 C28.514190673828125,-51.69449996948242 51.66550064086914,-28.530195236206055 51.66550064086914,0 C51.66550064086914,28.530195236206055 28.514190673828125,51.69449996948242 0,51.69449996948242 C-28.514190673828125,51.69449996948242 -51.66550064086914,28.530195236206055 -51.66550064086914,0 C-51.66550064086914,-28.530195236206055 -28.514190673828125,-51.69449996948242 0,-51.69449996948242z">
                                </path>
                            </g>
                        </g>
                    </g>
                    <g transform="matrix(0.8492780923843384,0.5279548168182373,-0.5279548168182373,0.8492780923843384,678.1630249023438,458.5386657714844)"
                        opacity="1" style="display: block;">
                        <g opacity="1" transform="matrix(1,0,0,1,0,0)">
                            <path stroke-linecap="round" stroke-linejoin="round" fill-opacity="0" stroke="rgb(22,37,86)"
                                stroke-opacity="1" stroke-width="20"
                                d=" M-129.3459930419922,129.4219970703125 C-129.3459930419922,129.4219970703125 129.343994140625,-129.41799926757812 129.343994140625,-129.41799926757812">
                            </path>
                        </g>
                    </g>
                    <g transform="matrix(0.8492780923843384,0.5279548168182373,-0.5279548168182373,0.8492780923843384,500,500)"
                        opacity="1" style="display: block;">
                        <g opacity="1" transform="matrix(1,0,0,1,0,0)">
                            <path fill="rgb(22,37,86)" fill-opacity="1"
                                d=" M0,-51.69449996948242 C28.514190673828125,-51.69449996948242 51.66550064086914,-28.530195236206055 51.66550064086914,0 C51.66550064086914,28.530195236206055 28.514190673828125,51.69449996948242 0,51.69449996948242 C-28.514190673828125,51.69449996948242 -51.66550064086914,28.530195236206055 -51.66550064086914,0 C-51.66550064086914,-28.530195236206055 -28.514190673828125,-51.69449996948242 0,-51.69449996948242z">
                            </path>
                        </g>
                    </g>
                    <g transform="matrix(1.9193593263626099,1.1931720972061157,-1.1931720972061157,1.9193593263626099,500,500)"
                        opacity="1" style="display: block;">
                        <g opacity="1" transform="matrix(1,0,0,1,0,0)"></g>
                    </g>
                </g>
            </svg>