<svg xmlns="http://www.w3.org/2000/svg" xmlns:xlink="http://www.w3.org/1999/xlink" width="52" height="52" viewBox="0 0 52 52">
  <defs>
    <clipPath id="clip-path">
      <rect id="Rectangle_1983" data-name="Rectangle 1983" width="52" height="52" transform="translate(1251 2105)" fill="#fff" stroke="#707070" stroke-width="1"/>
    </clipPath>
  </defs>
  <g id="Mask_Group_45" data-name="Mask Group 45" transform="translate(-1251 -2105)" clip-path="url(#clip-path)">
    <g id="ember-logo" transform="translate(1251 2120.93)">
      <path id="Path_19854" data-name="Path 19854" d="M51.117,13.843a4.114,4.114,0,0,1-2.379.873c-1.113-.11-.763-2.6-.763-2.6s.24-2.287-.416-2.48-1.461.6-1.461.6a8.24,8.24,0,0,0-1.484,2.539l-.133.044a18.055,18.055,0,0,0-.021-3.064c-.131-.284-1.331-.262-1.528.24a30.643,30.643,0,0,0-1.223,5.471A9.111,9.111,0,0,1,38.2,17.319c-1.637.264-2.03-.765-2.03-.765s4.453-1.247,4.3-4.814-3.59-2.246-3.979-1.954a6.944,6.944,0,0,0-2.972,4.864c-.02.113-.055.614-.055.614a15.427,15.427,0,0,1-2.685,1.464s2.685-4.529-.588-6.585a1.732,1.732,0,0,0-2.2.425c-.293.288,3.968-4.384,2.984-8.565C30.5.013,29.511-.2,28.6.122a4.13,4.13,0,0,0-1.906,1.355,15.313,15.313,0,0,0-2.206,6.478c-.415,3.872-1.025,8.555-1.025,8.555a3.248,3.248,0,0,1-1.637.875c-.787.042-.437-2.342-.437-2.342s.611-3.631.569-4.245-.088-.94-.809-1.158-1.507.7-1.507.7-2.072,3.15-2.246,3.631l-.111.2-.108-.133s1.461-4.288.066-4.353-2.314,1.531-2.314,1.531-1.594,2.67-1.659,2.976l-.108-.131a21.587,21.587,0,0,0,.524-3.874.7.7,0,0,0-.851-.612s-.917-.11-1.157.481a43.544,43.544,0,0,0-1.223,5.754s-2.291,1.641-3.8,1.662S5.3,16.515,5.3,16.515s5.522-1.895,4.015-5.636A2.735,2.735,0,0,0,6.745,9.635c-1.114.023-2.495.7-3.39,2.716a8.961,8.961,0,0,0-.672,2.56,2.065,2.065,0,0,1-1.489-.239c-.525-.438-.794,0-.794,0s-.9,1.15,0,1.5a11.434,11.434,0,0,0,2.292.514A4.19,4.19,0,0,0,4.28,19.167c1.637,1.247,4.778-.115,4.778-.115l1.287-.724s.044,1.184.983,1.357,1.331,0,2.968-3.985c.961-2.035,1.027-1.925,1.027-1.925.108-.023-.633,3.872-.35,4.922s1.528.942,1.528.942.677.131,1.223-1.8A28.142,28.142,0,0,1,19.317,13.8c.129,0-.328,3.981.369,5.252s2.511.426,2.511.426a12.675,12.675,0,0,0,1.463-.837,5.133,5.133,0,0,0,3.621,1.05c4.738-.935,6.423-2.2,6.423-2.2a3.914,3.914,0,0,0,3.335,2.26,5.538,5.538,0,0,0,4.453-1.6,1.761,1.761,0,0,0,.981,1.6c1.006.415,1.681-1.923,1.681-1.923l1.68-4.642c.153,0,.24,3.019,1.9,3.5s3.819-1.128,3.819-1.128a1.137,1.137,0,0,0,.437-1.164.6.6,0,0,0-.873-.549ZM7.4,11.653c.588.569.37,1.793-.743,2.559s-1.615.614-1.615.614C5.108,12.221,6.811,11.082,7.4,11.653ZM29.116,2.66c.371,1.969-3.251,7.833-3.251,7.833a44.619,44.619,0,0,1,1.33-5.754S28.743.691,29.115,2.66ZM25.536,17.6s-.284-.963.524-3.653,2.707-1.642,2.707-1.642,1.31,1.006.284,3.7a2.562,2.562,0,0,1-3.514,1.6ZM36.58,12.332c.894-1.641,1.593-.745,1.593-.745a1.629,1.629,0,0,1-.109,2.079,2.571,2.571,0,0,1-2.139,1.16A3.712,3.712,0,0,1,36.58,12.332Z" fill="#e04e39"/>
      <path id="Path_19855" data-name="Path 19855" d="M45.514,18.971v-.314h.2a.774.774,0,0,1,.084.006.3.3,0,0,1,.08.021.136.136,0,0,1,.058.044.117.117,0,0,1,.023.077c0,.073-.021.12-.065.139a.429.429,0,0,1-.168.027h-.21Zm-.237-.5v1.2h.237v-.51h.148l.29.511H46.2l-.319-.522A.563.563,0,0,0,46,19.12a.267.267,0,0,0,.1-.057.248.248,0,0,0,.067-.1.346.346,0,0,0,.025-.141.3.3,0,0,0-.121-.273.628.628,0,0,0-.347-.08h-.449Zm-.379.6a.87.87,0,0,1,.062-.336.823.823,0,0,1,.17-.263.8.8,0,0,1,1.137,0,.846.846,0,0,1,.236.6.893.893,0,0,1-.063.338.859.859,0,0,1-.173.266.776.776,0,0,1-.568.239.791.791,0,0,1-.315-.063.759.759,0,0,1-.254-.175.83.83,0,0,1-.171-.266.883.883,0,0,1-.063-.338Zm-.292,0a1.034,1.034,0,0,0,.681.993,1.163,1.163,0,0,0,.413.074,1.177,1.177,0,0,0,.415-.074,1.082,1.082,0,0,0,.591-1.432,1.035,1.035,0,0,0-.591-.55,1.153,1.153,0,0,0-.415-.076,1.139,1.139,0,0,0-.763.29A1.035,1.035,0,0,0,44.606,19.072Z" fill="#e04e39"/>
    </g>
  </g>
</svg>
