<svg xmlns="http://www.w3.org/2000/svg" width="142.188" height="63.122" viewBox="0 0 142.188 63.122">
  <g id="Group_18881" data-name="Group 18881" transform="translate(-611.906 -3027)">
    <g id="Group_17268" data-name="Group 17268" transform="translate(665.822 3027)">
      <path id="Path_27997" data-name="Path 27997" d="M22.813,7.825H23.87l3.013-3.013.148-1.279A13.542,13.542,0,0,0,5,10.14a1.639,1.639,0,0,1,1.057-.063l6.026-.994s.307-.507.465-.476a7.516,7.516,0,0,1,10.286-.782Z" transform="translate(-0.819 -0.144)" fill="#ea4335"/>
      <path id="Path_27998" data-name="Path 27998" d="M30.508,9.957a13.574,13.574,0,0,0-4.091-6.6L22.188,7.589a7.516,7.516,0,0,1,2.759,5.962V14.3a3.763,3.763,0,1,1,0,7.527H17.421l-.751.761V27.1l.751.751h7.527a9.789,9.789,0,0,0,5.561-17.9Z" transform="translate(-0.152 0.04)" fill="#4285f4"/>
      <path id="Path_27999" data-name="Path 27999" d="M10.569,26.834H18.1V20.808H10.569a3.741,3.741,0,0,1-1.553-.338L7.958,20.8,4.924,23.811,4.66,24.868a9.736,9.736,0,0,0,5.909,1.966Z" transform="translate(-0.838 1.018)" fill="#34a853"/>
      <path id="Path_28000" data-name="Path 28000" d="M10.776,8A9.789,9.789,0,0,0,4.867,25.549l4.366-4.366A3.763,3.763,0,1,1,14.212,16.2l4.366-4.366A9.779,9.779,0,0,0,10.776,8Z" transform="translate(-1.045 0.305)" fill="#fbbc05"/>
    </g>
    <g id="Group_17267" data-name="Group 17267" transform="translate(611.906 3064.904)">
      <path id="Path_28001" data-name="Path 28001" d="M53.326,23.568A9.631,9.631,0,0,1,46.348,20.7,9.3,9.3,0,0,1,43.42,13.81a9.313,9.313,0,0,1,2.928-6.893A9.631,9.631,0,0,1,53.326,4a9.345,9.345,0,0,1,6.692,2.7L58.136,8.609a6.776,6.776,0,0,0-4.81-1.9,6.7,6.7,0,0,0-4.969,2.114,6.9,6.9,0,0,0-2.04,5.021,6.9,6.9,0,0,0,2.04,4.958,7.094,7.094,0,0,0,9.895.116A5.624,5.624,0,0,0,59.7,15.629H53.357V12.922h8.975a8.584,8.584,0,0,1,.106,1.649,8.457,8.457,0,0,1-2.315,6.237,9,9,0,0,1-6.8,2.759Zm20.868-1.8a6.47,6.47,0,0,1-8.954,0,6.026,6.026,0,0,1-1.829-4.493,6.036,6.036,0,0,1,1.829-4.493,6.48,6.48,0,0,1,8.954,0,6.036,6.036,0,0,1,1.829,4.493,6.026,6.026,0,0,1-1.839,4.493Zm-6.977-1.765a3.425,3.425,0,0,0,5,0,3.763,3.763,0,0,0,1.057-2.727,3.774,3.774,0,0,0-1.057-2.738,3.478,3.478,0,0,0-5.021,0,3.774,3.774,0,0,0-1.057,2.738,3.763,3.763,0,0,0,1.068,2.727Zm20.741,1.765a6.47,6.47,0,0,1-8.954,0,6.026,6.026,0,0,1-1.829-4.493A6.036,6.036,0,0,1,79,12.785a6.47,6.47,0,0,1,8.954,0,6.036,6.036,0,0,1,1.829,4.493,6.026,6.026,0,0,1-1.829,4.493Zm-6.977-1.765a3.425,3.425,0,0,0,5,0,3.763,3.763,0,0,0,1.057-2.727,3.774,3.774,0,0,0-1.057-2.738,3.478,3.478,0,0,0-5.021,0A3.774,3.774,0,0,0,79.9,17.278a3.763,3.763,0,0,0,1.068,2.727Zm16.026,9.208a5.54,5.54,0,0,1-3.52-1.121,6.48,6.48,0,0,1-2.051-2.6l2.41-1a4.06,4.06,0,0,0,1.195,1.575,3.013,3.013,0,0,0,1.977.666,3.171,3.171,0,0,0,2.463-.951,3.859,3.859,0,0,0,.877-2.749v-.909h-.1a4.028,4.028,0,0,1-3.309,1.427,5.74,5.74,0,0,1-4.229-1.839,6.079,6.079,0,0,1-1.808-4.429,6.142,6.142,0,0,1,1.808-4.461,5.73,5.73,0,0,1,4.229-1.85A4.546,4.546,0,0,1,98.9,11.4a3.911,3.911,0,0,1,1.374,1h.1v-1h2.622V22.659a6.565,6.565,0,0,1-1.681,4.916,5.92,5.92,0,0,1-4.3,1.639Zm.19-8.119a3.076,3.076,0,0,0,2.389-1.057,3.911,3.911,0,0,0,.962-2.706,4,4,0,0,0-.962-2.759A3.066,3.066,0,0,0,97.2,13.514a3.267,3.267,0,0,0-2.474,1.057,3.859,3.859,0,0,0-1.057,2.738,3.785,3.785,0,0,0,1.057,2.706A3.277,3.277,0,0,0,97.2,21.094ZM107.653,4.708V23.187h-2.759V4.708Zm7.569,18.859a6,6,0,0,1-4.451-1.808,6.121,6.121,0,0,1-1.787-4.482,6.2,6.2,0,0,1,1.723-4.525,5.666,5.666,0,0,1,4.229-1.765,5.339,5.339,0,0,1,2.114.412,4.979,4.979,0,0,1,1.617,1.057,7.4,7.4,0,0,1,1.057,1.279,7.559,7.559,0,0,1,.624,1.237l.285.719-8.457,3.478a3.171,3.171,0,0,0,3.045,1.9,3.6,3.6,0,0,0,3.1-1.744l2.114,1.427a6.967,6.967,0,0,1-2.03,1.924A5.751,5.751,0,0,1,115.222,23.568Zm-3.531-6.48,5.624-2.336a1.945,1.945,0,0,0-.877-.962,2.865,2.865,0,0,0-1.448-.37,3.267,3.267,0,0,0-2.273,1A3.351,3.351,0,0,0,111.691,17.087Z" transform="translate(-43.419 -3.999)" fill="#5f6368"/>
      <path id="Path_28002" data-name="Path 28002" d="M130.609,23.474a8.711,8.711,0,0,1-8.859-8.912,8.711,8.711,0,0,1,8.859-8.912,7.886,7.886,0,0,1,6.269,2.791l-1.522,1.48a5.751,5.751,0,0,0-4.736-2.167,6.459,6.459,0,0,0-4.7,1.882A6.6,6.6,0,0,0,124,14.562a6.6,6.6,0,0,0,1.913,4.926,6.459,6.459,0,0,0,4.7,1.882,6.723,6.723,0,0,0,5.286-2.474l1.522,1.522a8.309,8.309,0,0,1-2.928,2.231A8.965,8.965,0,0,1,130.609,23.474Z" transform="translate(-38.943 -3.905)" fill="#5f6368"/>
      <path id="Path_28003" data-name="Path 28003" d="M140.568,23.073H138.38V6h2.188Z" transform="translate(-37.992 -3.885)" fill="#5f6368"/>
      <path id="Path_28004" data-name="Path 28004" d="M143.922,12.526a6.121,6.121,0,0,1,8.626,0,6.184,6.184,0,0,1,1.691,4.44,6.184,6.184,0,0,1-1.691,4.44,6.121,6.121,0,0,1-8.626,0,6.184,6.184,0,0,1-1.691-4.44,6.184,6.184,0,0,1,1.691-4.44Zm1.628,7.506a3.69,3.69,0,0,0,5.36,0,4.229,4.229,0,0,0,1.131-3.066,4.229,4.229,0,0,0-1.131-3.066,3.69,3.69,0,0,0-5.36,0,4.229,4.229,0,0,0-1.131,3.066,4.229,4.229,0,0,0,1.142,3.055Z" transform="translate(-37.772 -3.614)" fill="#5f6368"/>
      <path id="Path_28005" data-name="Path 28005" d="M165.619,22.781h-2.114V21.163h-.063a4.07,4.07,0,0,1-1.543,1.459,4.313,4.313,0,0,1-2.167.581,4.112,4.112,0,0,1-3.319-1.332A5.286,5.286,0,0,1,155.28,18.3V11.11h2.188V17.9q0,3.267,2.886,3.267a2.685,2.685,0,0,0,2.22-1.057,3.985,3.985,0,0,0,.856-2.527V11.11h2.188Z" transform="translate(-37.027 -3.593)" fill="#5f6368"/>
      <path id="Path_28006" data-name="Path 28006" d="M172.39,23.453a5.138,5.138,0,0,1-3.911-1.787,6.343,6.343,0,0,1-1.639-4.429,6.343,6.343,0,0,1,1.639-4.429,5.138,5.138,0,0,1,3.911-1.787,4.958,4.958,0,0,1,2.389.571,4.049,4.049,0,0,1,1.586,1.427h.1l-.1-1.617V6h2.188V23.073h-2.114V21.455h-.1a4.049,4.049,0,0,1-1.586,1.427A4.958,4.958,0,0,1,172.39,23.453Zm.359-2a3.489,3.489,0,0,0,2.632-1.142,4.281,4.281,0,0,0,1.057-3.076,4.281,4.281,0,0,0-1.057-3.076,3.573,3.573,0,0,0-5.286,0,4.229,4.229,0,0,0-1.057,3.066,4.229,4.229,0,0,0,1.057,3.066A3.489,3.489,0,0,0,172.75,21.455Z" transform="translate(-36.366 -3.885)" fill="#5f6368"/>
    </g>
  </g>
</svg>
