<svg xmlns="http://www.w3.org/2000/svg" viewBox="0 0 60 60"><defs><style>.cls-1{fill:#20bfa9;}.cls-2{fill:#fdfeff;}</style></defs><g id="Layer_2" data-name="Layer 2"><g id="Layer_1-2" data-name="Layer 1"><path class="cls-1" d="M0,30A30,30,0,1,1,30,60,30,30,0,0,1,0,30Z"/><path class="cls-2" d="M26.34,21.31,30,19.73l3.66,1.58-.37-4,2.63-3L32,13.44,30,10l-2,3.44-3.88.88,2.62,3Z"/><path class="cls-2" d="M37.65,23.17,40.32,22,43,23.17l-.27-2.89,1.91-2.19-2.82-.64L40.32,15l-1.49,2.5L36,18.09l1.91,2.19Z"/><path class="cls-2" d="M17,23.17,19.68,22l2.66,1.14-.26-2.89L24,18.09l-2.82-.64L19.68,15l-1.48,2.5-2.83.64,1.91,2.19Z"/><path class="cls-2" d="M42.34,24.07l-3.8,3.34,1,1.2-.61.31,0,0a2.55,2.55,0,0,1-2.14.12l-2.62-1.28a3.53,3.53,0,0,0-3.32.27l-1.12.79a10.34,10.34,0,0,1-1.66-.61,4.38,4.38,0,0,0-3.3-.06L23,28.93c-.29.13-.93.14-2.4-.49l-.08,0,.87-1-3.8-3.34L10,34.9l2.75,2.42.85-1L16,38.25l-.89,1a2.17,2.17,0,0,0-.61,1.57,2.22,2.22,0,0,0,.68,1.54l.29.28a2.2,2.2,0,0,0,.93.52,2.2,2.2,0,0,0,.42,2.6l.29.27a2.2,2.2,0,0,0,1.52.61,2.25,2.25,0,0,0,.81-.16,2.12,2.12,0,0,0,.6,1l.29.28a2.19,2.19,0,0,0,1.51.61A2.16,2.16,0,0,0,23.06,48a2.25,2.25,0,0,0,.55.91l.3.28a2.16,2.16,0,0,0,1.51.61,2.21,2.21,0,0,0,1.6-.7l.66-.75A1.93,1.93,0,0,0,28,48l1.51,1.4A2.15,2.15,0,0,0,31,50H31a2.17,2.17,0,0,0,1.52-.7l.28-.3a2.12,2.12,0,0,0,.47-.84l.63.59a2.2,2.2,0,0,0,3.1-.12l.27-.3a2.11,2.11,0,0,0,.56-1.17,2.07,2.07,0,0,0,.5.06h.08a2.17,2.17,0,0,0,1.53-.7l.27-.29a2.19,2.19,0,0,0,.59-1.58c0-.13,0-.25-.05-.37a2.2,2.2,0,0,0,1.27-.67l.28-.3a2.22,2.22,0,0,0-.06-3.05l4.22-3.71.67.77L50,34.83Zm-26,17.65-.29-.28a1,1,0,0,1,0-1.36l1.46-1.62a1,1,0,0,1,.69-.29.91.91,0,0,1,.65.26l.3.28a1,1,0,0,1,.29.67,1,1,0,0,1-.27.69l-1.64,1.75a1,1,0,0,1-1.17-.1Zm3,3.36a1,1,0,0,1-1.34,0l-.29-.28a1,1,0,0,1,0-1.35l2.95-3.15a.93.93,0,0,1,.69-.29.94.94,0,0,1,.65.26l.29.28a1,1,0,0,1,.29.67,1,1,0,0,1-.26.68Zm3.22,1.75a1,1,0,0,1-1.34,0l-.29-.29a1,1,0,0,1,0-1.34l1.75-1.87a.92.92,0,0,1,.58-.21,1,1,0,0,1,.66.27l.29.27a1,1,0,0,1,0,1.35Zm4.2.7-.66.75a1,1,0,0,1-1.34,0L24.48,48a1,1,0,0,1,0-1.36l.66-.75a1,1,0,0,1,1.34,0l.29.28a1,1,0,0,1,0,1.36Zm14.65-5.07-.27.3a1,1,0,0,1-1.34.05l-4.63-4.33a.63.63,0,0,0-.88,0,.64.64,0,0,0,0,.89l5,4.63a1,1,0,0,1,.05,1.35l-.27.29a.93.93,0,0,1-.66.3.94.94,0,0,1-.68-.25l-4.46-4.16a.63.63,0,0,0-.88,0,.64.64,0,0,0,0,.89l3.94,3.67a1,1,0,0,1,0,1.33l-.27.3a.94.94,0,0,1-1.34,0L30.68,44a.61.61,0,0,0-.87,0,.63.63,0,0,0,0,.89l2.07,1.93a1,1,0,0,1,.27.61.93.93,0,0,1-.25.68l-.28.3a.91.91,0,0,1-.66.3.92.92,0,0,1-.67-.25l-2.06-1.92a2.21,2.21,0,0,0-.65-1.32L27.32,45a2.13,2.13,0,0,0-1.51-.61h-.09a2.19,2.19,0,0,0-.67-1.59l-.3-.28A2.14,2.14,0,0,0,23.69,42a2.3,2.3,0,0,0,.12-.74,2.22,2.22,0,0,0-.68-1.54l-.29-.28a2.19,2.19,0,0,0-1.51-.61,2.27,2.27,0,0,0-.69.12,2.17,2.17,0,0,0-.62-1.1l-.3-.28a2.16,2.16,0,0,0-1.51-.61,2.22,2.22,0,0,0-1.29.43l-2.5-1.94,5.2-6,.51.16a6.59,6.59,0,0,0,2.47.65,2.16,2.16,0,0,0,.88-.17l1.78-.76a3.14,3.14,0,0,1,2.26,0,7.75,7.75,0,0,0,.94.39l-.83.59a2.18,2.18,0,0,0-.48,3.06l.24.32a2.38,2.38,0,0,0,3.1.61l1.08-.65a2,2,0,0,1,1.9,0l7.91,7.39a1,1,0,0,1,0,1.35Zm-.05-3.06-7.08-6.62-.06-.05a3.18,3.18,0,0,0-3.3-.13l-1.09.66A1.13,1.13,0,0,1,28.39,33l-.24-.33A.89.89,0,0,1,28,32a.94.94,0,0,1,.37-.6l3.22-2.28a2.3,2.3,0,0,1,2.06-.17l2.61,1.28A3.76,3.76,0,0,0,39.56,30l.87-.44,5.25,6Z"/></g></g></svg>