<svg xmlns="http://www.w3.org/2000/svg" width="176.747" height="49.297" viewBox="0 0 176.747 49.297">
  <g id="Group_17270" data-name="Group 17270" transform="translate(4580.6 5645.971)">
    <path id="Path_28007" data-name="Path 28007" d="M-4559.194-5615.366H-4580.6v-21.4h21.409Z" transform="translate(0 -7.959)" fill="#ff5900"/>
    <path id="Path_28008" data-name="Path 28008" d="M-4384.283-5615.366h-21.409v-21.4h21.409Z" transform="translate(-151.15 -7.959)" fill="#7ac90e"/>
    <path id="Path_28009" data-name="Path 28009" d="M-4559.194-5439.636H-4580.6v-21.4h21.409Z" transform="translate(0 -157.038)" fill="#00b0f5"/>
    <path id="Path_28010" data-name="Path 28010" d="M-4384.283-5439.636h-21.409v-21.4h21.409Z" transform="translate(-151.15 -157.038)" fill="#ffc000"/>
    <path id="Path_28011" data-name="Path 28011" d="M-4126.473-5632.488a.993.993,0,0,0-.154.2q-2.883,7.291-5.75,14.576a.8.8,0,0,1-.9.6c-1.647-.061-1.234.253-1.866-1.268q-2.481-5.958-4.926-11.939c-.292-.715-.507-1.461-.8-2.306-.091.169-.158.236-.158.3q.045,7.273.108,14.548c0,.5-.148.7-.661.661a10.651,10.651,0,0,0-1.559,0c-.566.048-.678-.2-.678-.712q.021-8.736,0-17.467c0-.553.185-.7.708-.685,1.062.031,2.125.035,3.188,0a.8.8,0,0,1,.887.616q2.605,6.71,5.239,13.41c.04.1.087.2.2.455.156-.313.269-.507.353-.71q2.662-6.582,5.3-13.17a.8.8,0,0,1,.9-.6c1.014.033,2.034.026,3.052,0,.449-.01.592.167.592.6q-.012,8.834,0,17.669c0,.435-.154.609-.6.592-.634-.025-1.268-.022-1.9,0-.413.015-.556-.149-.554-.557.01-4.309,0-8.618.019-12.928,0-.623.091-1.242.141-1.865Z" transform="translate(-373.411 -8.647)" fill="#77787b"/>
    <path id="Path_28012" data-name="Path 28012" d="M-3466.489-5643.346c-.371-.058-.7-.127-1.032-.154a2.046,2.046,0,0,0-1.747.457,2.046,2.046,0,0,0-.7,1.663c-.033.539,0,1.083-.012,1.624-.011.405.168.568.568.564,1.289-.009,2.578-.015,3.867,0,.454,0,.586-.187.571-.612-.024-.677-.025-1.355.008-2.028.009-.191.127-.494.269-.543.866-.3,1.75-.551,2.747-.852,0,1.141.03,2.171-.011,3.2-.026.655.215.888.863.843.562-.043,1.129-.01,1.695-.007.135,0,.317-.047.4.022.634.527.2,1.245.276,1.871.017.127-.3.426-.483.44-.7.054-1.395.028-2.1.025-.357,0-.634.08-.634.507.028,2.23.053,4.462.089,6.693.02,1.288.953,1.9,2.38,1.647.216-.039.427-.115.761-.209,0,.728.027,1.394-.022,2.05-.011.149-.274.348-.458.4a5.686,5.686,0,0,1-3.4.053,3.155,3.155,0,0,1-2.25-2.85,19.093,19.093,0,0,1-.136-2.29c-.018-1.783-.022-3.566,0-5.349.008-.507-.185-.675-.669-.667-1.22.018-2.442.021-3.663,0-.546-.01-.687.23-.686.737.015,3.181,0,6.363.019,9.544,0,.6-.127.888-.788.814a8.639,8.639,0,0,0-1.557,0c-.544.043-.7-.162-.7-.7.021-3.022.014-6.047.007-9.069,0-1.367.188-1.323-1.309-1.322-.987,0-1,0-.986-1,.016-1.571-.215-1.337,1.369-1.354.924-.012.908,0,.933-.95a12.783,12.783,0,0,1,.158-2.416,4.376,4.376,0,0,1,4.268-3.406c2.155-.042,2.155-.042,2.125,2.069A3.407,3.407,0,0,1-3466.489-5643.346Z" transform="translate(-945.193)" fill="#77787b"/>
    <path id="Path_28013" data-name="Path 28013" d="M-4133.927-5427.611c-1.07,0-2.036.028-3-.026-.169-.009-.389-.335-.473-.555q-.672-1.805-1.276-3.635a.836.836,0,0,0-.934-.663q-3.155.04-6.31,0a.813.813,0,0,0-.915.674c-.388,1.224-.842,2.428-1.233,3.652a.682.682,0,0,1-.773.566c-.852-.025-1.706-.006-2.673-.006.481-1.3.923-2.5,1.37-3.694,1.794-4.792,3.607-9.577,5.371-14.377.253-.706.587-1.027,1.357-.928a8.361,8.361,0,0,0,1.694,0,.828.828,0,0,1,.631.124.83.83,0,0,1,.354.536c1.859,5.055,3.75,10.1,5.629,15.143C-4134.718-5429.769-4134.341-5428.738-4133.927-5427.611Zm-8.855-16.2-3.027,8.914h6.09Z" transform="translate(-366.912 -169.495)" fill="#77787b"/>
    <path id="Path_28014" data-name="Path 28014" d="M-3766.058-5584.673a6.163,6.163,0,0,1-6.615-5.237,8.488,8.488,0,0,1,.448-4.9,5.9,5.9,0,0,1,3.6-3.443,8.567,8.567,0,0,1,5.186-.185,5.551,5.551,0,0,1,4.022,3.851,8.772,8.772,0,0,1-.042,5.639C-3760.385-5586.2-3762.774-5584.669-3766.058-5584.673Zm3.979-6.873c-.083-.7-.113-1.287-.225-1.855a3.489,3.489,0,0,0-3.315-2.879,3.62,3.62,0,0,0-3.606,2.125,6.247,6.247,0,0,0,.076,5.114,3.611,3.611,0,0,0,3.987,1.9,3.2,3.2,0,0,0,2.748-2.454,18.239,18.239,0,0,0,.336-1.952Z" transform="translate(-690.883 -40.806)" fill="#77787b"/>
    <path id="Path_28015" data-name="Path 28015" d="M-3580.609-5591.928a6.415,6.415,0,0,1,2.769-5.538c2.651-1.844,7.908-1.716,9.928,1.475,1.714,2.706,1.663,8.171-1.887,10.364-2.788,1.721-8.06,1.563-10.013-2.182A8.449,8.449,0,0,1-3580.609-5591.928Zm10.7.33c-.071-.6-.094-1.208-.223-1.8a3.46,3.46,0,0,0-3.209-2.823,3.519,3.519,0,0,0-3.7,2.163,6.151,6.151,0,0,0,.03,4.984,3.624,3.624,0,0,0,4.117,2,3.334,3.334,0,0,0,2.77-2.779c.113-.569.146-1.156.217-1.752Z" transform="translate(-854.19 -40.885)" fill="#77787b"/>
    <path id="Path_28016" data-name="Path 28016" d="M-3730.3-5397.133v.753c0,1.413,0,1.418-1.322,1.857a10.3,10.3,0,0,1-4.953.368,5.422,5.422,0,0,1-4.6-4.308,8.845,8.845,0,0,1,.245-5.642,6.352,6.352,0,0,1,3.978-3.747,6.347,6.347,0,0,1,5.416.731,5.628,5.628,0,0,1,2.166,3.844c.115.707.086,1.435.158,2.155.063.608-.133.824-.782.816-2.576-.037-5.153-.017-7.732-.016-.887,0-.9.024-.75.871a4.077,4.077,0,0,0,1.788,2.684,4.073,4.073,0,0,0,3.179.544C-3732.444-5396.436-3731.412-5396.815-3730.3-5397.133Zm-8.175-5.249c.328.026.616.064.905.065,1.465.006,2.932,0,4.4,0,1.294,0,1.362-.091,1.044-1.352a2.923,2.923,0,0,0-2.323-2.347,3.562,3.562,0,0,0-2.849.888,3.562,3.562,0,0,0-1.175,2.744Z" transform="translate(-717.746 -202.737)" fill="#77787b"/>
    <path id="Path_28017" data-name="Path 28017" d="M-3910.464-5394.294c-.114.152-.232.3-.341.456a4.157,4.157,0,0,1-3.344,1.9,4.612,4.612,0,0,1-3.967-1.311,4.658,4.658,0,0,1-1.176-3.034c-.076-2.932-.049-5.866-.078-8.8,0-.478.2-.633.653-.614a14.588,14.588,0,0,0,1.627,0c.507-.033.661.171.655.667-.02,2.481-.014,4.965,0,7.447a6.339,6.339,0,0,0,.127,1.14,2.572,2.572,0,0,0,2.14,2.241,3.088,3.088,0,0,0,3.2-1.293,4.481,4.481,0,0,0,.732-2.559c0-2.3.015-4.6-.008-6.906,0-.556.162-.776.732-.733a14.593,14.593,0,0,0,1.627,0c.419-.018.545.165.544.564q-.012,6.161,0,12.322c0,.4-.127.582-.543.568-.61-.021-1.221-.018-1.832,0-.381.009-.532-.149-.521-.523.014-.5,0-1,0-1.493Z" transform="translate(-565.627 -204.855)" fill="#77787b"/>
    <path id="Path_28018" data-name="Path 28018" d="M-4014.4-5394.358h4.319c.836,0,1.674.011,2.508,0,.374,0,.507.138.532.506.111,1.69.12,1.69-1.592,1.69q-4.475,0-8.95-.009c-.293,0-.836-.1-.84-.175a2.089,2.089,0,0,1,.187-1.2c.8-1.173,1.685-2.289,2.535-3.422q2.129-2.848,4.253-5.694c.141-.187.253-.4.448-.706-.373-.02-.611-.042-.848-.042-1.763,0-3.526-.021-5.288.009-.549.009-.693-.179-.689-.7.01-1.505-.01-1.505,1.5-1.505,2.78,0,5.561-.007,8.34.009.31,0,.862.1.881.221a2.217,2.217,0,0,1-.147,1.218,7.162,7.162,0,0,1-.862,1.208q-2.926,3.939-5.849,7.879C-4014.079-5394.9-4014.184-5394.706-4014.4-5394.358Z" transform="translate(-480.913 -204.935)" fill="#77787b"/>
    <path id="Path_28019" data-name="Path 28019" d="M-3650-5595.665c-1.056-.231-2.028-.507-3.015-.633a1.658,1.658,0,0,0-1.33.236,1.664,1.664,0,0,0-.714,1.147,1.308,1.308,0,0,0,.634,1.326c.529.3,1.085.548,1.622.83a14.962,14.962,0,0,1,2.067,1.13,3.686,3.686,0,0,1,1.477,3.078,3.686,3.686,0,0,1-1.681,2.97,7.016,7.016,0,0,1-5.545.761c-1.689-.348-1.682-.374-1.682-2.075v-1.112a28.085,28.085,0,0,0,2.886.966,5.44,5.44,0,0,0,1.869-.054,1.18,1.18,0,0,0,1.059-1,1.338,1.338,0,0,0-.553-1.49c-.5-.31-1.026-.565-1.548-.832-.642-.327-1.328-.585-1.934-.968a3.73,3.73,0,0,1-1.785-3.188,3.729,3.729,0,0,1,1.8-3.183,6.932,6.932,0,0,1,5.993-.482.722.722,0,0,1,.364.546C-3649.979-5597-3650-5596.3-3650-5595.665Z" transform="translate(-789.217 -40.867)" fill="#77787b"/>
    <path id="Path_28020" data-name="Path 28020" d="M-3918.621-5595.2c-3.3-1.34-5.16-1.119-6.475.716a5.358,5.358,0,0,0,.2,6.252c1.062,1.2,3.247,1.992,6.26.233,0,.851.012,1.647-.014,2.438,0,.115-.171.27-.3.329-2.632,1.248-6.934,1.086-9.016-2-2.267-3.356-1.4-10.14,4.452-11.2a8.619,8.619,0,0,1,4.345.278.7.7,0,0,1,.555.789C-3918.643-5596.666-3918.621-5595.969-3918.621-5595.2Z" transform="translate(-557.342 -40.954)" fill="#77787b"/>
    <path id="Path_28021" data-name="Path 28021" d="M-3829.068-5595.563c.126-.229.253-.46.389-.686a3.386,3.386,0,0,1,3.267-1.774c.555.028.887.2.837.851-.049.711-.011,1.428-.011,2.155-.612-.1-1.141-.23-1.669-.262a2.445,2.445,0,0,0-2.306,1.268,5.431,5.431,0,0,0-.74,2.978c-.011,1.985-.023,3.971.008,5.956.009.6-.191.812-.783.761a13.406,13.406,0,0,0-1.627,0c-.416.016-.558-.162-.558-.561q.01-6.161,0-12.323c0-.4.143-.577.558-.562.587.02,1.177.025,1.763,0,.469-.023.66.157.641.626-.023.516,0,1.032,0,1.55Z" transform="translate(-640.32 -41.437)" fill="#77787b"/>
    <path id="Path_28022" data-name="Path 28022" d="M-3801.19-5404.652a17.159,17.159,0,0,1,.915-1.55,3.19,3.19,0,0,1,3-1.362c.491.042.784.238.745.813-.044.641-.01,1.291-.01,1.979a8.5,8.5,0,0,0-1.014-.2,3.442,3.442,0,0,0-2.674.949,3.438,3.438,0,0,0-1.053,2.634c-.126,2.2-.083,4.416-.109,6.625-.012.9,0,.915-.9.9-.646-.014-1.495.151-1.871-.186-.327-.294-.143-1.182-.145-1.806-.007-3.564.009-7.13-.016-10.693,0-.6.164-.818.76-.761a11.7,11.7,0,0,0,1.559,0c.438-.02.615.156.6.591-.019.686,0,1.373,0,2.058Z" transform="translate(-664.196 -203.235)" fill="#77787b"/>
    <path id="Path_28023" data-name="Path 28023" d="M-3965.944-5589.424c0,2.006-.015,4.014.011,6.021.008.535-.157.731-.7.693a17.388,17.388,0,0,0-1.762,0c-.4.015-.568-.127-.568-.542q.014-6.191,0-12.381c0-.38.143-.53.519-.52a15.935,15.935,0,0,0,1.694-.006c.608-.048.829.139.815.786C-3965.969-5593.395-3965.944-5591.409-3965.944-5589.424Z" transform="translate(-523.504 -43.039)" fill="#77787b"/>
    <path id="Path_28024" data-name="Path 28024" d="M-3970.96-5637.1a1.741,1.741,0,0,1,.539-1.272,1.735,1.735,0,0,1,1.295-.48,1.873,1.873,0,0,1,1.849,1.791,1.9,1.9,0,0,1-1.851,1.736,1.792,1.792,0,0,1-1.286-.5A1.8,1.8,0,0,1-3970.96-5637.1Z" transform="translate(-521.77 -6.156)" fill="#77787b"/>
  </g>
</svg>
