<svg xmlns="http://www.w3.org/2000/svg" viewBox="0 0 60 60"><defs><style>.cls-1{fill:#20bfa9;}.cls-2{fill:#fcfdff;}</style></defs><g id="Layer_2" data-name="Layer 2"><g id="Layer_1-2" data-name="Layer 1"><path class="cls-1" d="M0,30A30,30,0,1,1,30,60,30,30,0,0,1,0,30Z"/><path class="cls-2" d="M28.7,41l-1.12-1.64-.88,0h-.07l-1.55,2.26a4.41,4.41,0,0,0-4.43,2,4.13,4.13,0,0,0,.72,5.78A4.18,4.18,0,0,0,27,47.94a4.34,4.34,0,0,0,.21-4.82Zm-3.25,6a2.18,2.18,0,0,1-3,.77,2.31,2.31,0,1,1,3-.77Z"/><path class="cls-2" d="M34.84,35.84l-.45,1a2.74,2.74,0,0,1-2.17,1.64l-.31-.47L30.4,35.84Z"/><path class="cls-2" d="M44.78,17.58H15.21A1.21,1.21,0,0,0,14,18.79v15A1.21,1.21,0,0,0,15.21,35H22.3l-1.22-2.84H18.25a2,2,0,0,0-2-2v-7.7a2,2,0,0,0,2-2h23.5a2,2,0,0,0,2,2v7.7a2,2,0,0,0-2,2H27.89L29.82,35h15A1.22,1.22,0,0,0,46,33.79v-15a1.22,1.22,0,0,0-1.22-1.21Z"/><path class="cls-2" d="M32,27.72a1.93,1.93,0,0,1-1.66,1.82v.62a.42.42,0,0,1-.42.42.42.42,0,0,1-.42-.42v-.62a1.93,1.93,0,0,1-1.67-1.82.42.42,0,0,1,.42-.42.43.43,0,0,1,.43.42,1.27,1.27,0,1,0,1.24-1,2,2,0,0,1-2.09-1.85A1.93,1.93,0,0,1,29.48,23v-.61A.42.42,0,0,1,29.9,22a.42.42,0,0,1,.42.43V23A1.94,1.94,0,0,1,32,24.86a.43.43,0,0,1-.85,0,1.26,1.26,0,0,0-2.48,0,1.14,1.14,0,0,0,1.24,1A2,2,0,0,1,32,27.72Z"/><path class="cls-2" d="M28.65,37.94s0,.62,0,0S28.65,37.89,28.65,37.94Z"/><path class="cls-2" d="M29.76,37.94a.55.55,0,0,1-.54.55.54.54,0,0,1-.56-.55c0,.62,0,0,0,0s0-.66,0,0a.55.55,0,0,1,.55-.55.54.54,0,0,1,.55.55s0-.71,0,0c0,0,0,.65,0,0Zm8,5.69a4.44,4.44,0,0,0-4.44-2L31.2,38.52l-2-2.92L20.9,23.42l-.37.53a3.94,3.94,0,0,0-.44,3.74L24,36.88a2.74,2.74,0,0,0,2.63,1.66l.56,0,.8,0,1.19,1.75,2,2.88a4.32,4.32,0,0,0,.22,4.82,4.17,4.17,0,0,0,5.66,1.47,4.12,4.12,0,0,0,.73-5.78Zm-1.85,4.15A2.18,2.18,0,0,1,33,47a2.15,2.15,0,0,1,.38-3,2.19,2.19,0,0,1,3,.76A2.16,2.16,0,0,1,35.93,47.78Z"/><path class="cls-2" d="M35.75,12.75l-2.68,2.76a.39.39,0,0,1-.3.13.42.42,0,0,1-.3-.12.41.41,0,0,1,0-.59l2.68-2.77a.41.41,0,0,1,.59,0,.43.43,0,0,1,0,.6Z"/><path class="cls-2" d="M27.5,14.91a.41.41,0,0,1,0,.59.44.44,0,0,1-.6,0l-2.63-2.79a.4.4,0,0,1,0-.59.41.41,0,0,1,.59,0Z"/><path class="cls-2" d="M30.43,10.43l0,4.78a.41.41,0,0,1-.42.41.42.42,0,0,1-.43-.42l0-4.78A.42.42,0,0,1,30,10h0a.41.41,0,0,1,.42.43Z"/><path class="cls-2" d="M41.36,26.29a1.17,1.17,0,1,1-1.17-1.17A1.17,1.17,0,0,1,41.36,26.29Z"/><path class="cls-2" d="M28.66,37.94c0,.62,0,0,0,0S28.66,37.28,28.66,37.94Z"/></g></g></svg>